<?xml version="1.0" encoding="UTF-8" standalone="no"?>
<!-- Created with Inkscape (http://www.inkscape.org/) -->

<svg
   xmlns:dc="http://purl.org/dc/elements/1.1/"
   xmlns:cc="http://creativecommons.org/ns#"
   xmlns:rdf="http://www.w3.org/1999/02/22-rdf-syntax-ns#"
   xmlns:svg="http://www.w3.org/2000/svg"
   xmlns="http://www.w3.org/2000/svg"
   xmlns:sodipodi="http://sodipodi.sourceforge.net/DTD/sodipodi-0.dtd"
   xmlns:inkscape="http://www.inkscape.org/namespaces/inkscape"
   width="753"
   height="332"
   viewBox="0 0 199.23125 87.841669"
   version="1.1"
   id="svg8"
   inkscape:version="0.92.4 5da689c313, 2019-01-14"
   sodipodi:docname="hero.svg">
  <defs
     id="defs2" />
  <sodipodi:namedview
     id="base"
     pagecolor="#ffffff"
     bordercolor="#666666"
     borderopacity="1.0"
     inkscape:pageopacity="0.0"
     inkscape:pageshadow="2"
     inkscape:zoom="0.98994949"
     inkscape:cx="376.5318"
     inkscape:cy="232.5955"
     inkscape:document-units="mm"
     inkscape:current-layer="layer1"
     showgrid="false"
     units="px"
     inkscape:window-width="2532"
     inkscape:window-height="1375"
     inkscape:window-x="12"
     inkscape:window-y="12"
     inkscape:window-maximized="1" />
  <metadata
     id="metadata5">
    <rdf:RDF>
      <cc:Work
         rdf:about="">
        <dc:format>image/svg+xml</dc:format>
        <dc:type
           rdf:resource="http://purl.org/dc/dcmitype/StillImage" />
        <dc:title></dc:title>
      </cc:Work>
    </rdf:RDF>
  </metadata>
  <g
     inkscape:label="Layer 1"
     inkscape:groupmode="layer"
     id="layer1"
     transform="translate(0,-209.1583)">
    <path
       d="m 102.02458,255.58482 -0.005,40.31525 h 3.20011 l 0.005,-40.31525 h -3.20014"
       style="fill:#1c1c1f;fill-opacity:1;fill-rule:nonzero;stroke:none;stroke-width:0.09186479"
       id="path2251"
       inkscape:connector-curvature="0" />
    <path
       d="m 104.285,255.58482 -9.5e-4,40.31525 h 3.19629 l 0.005,-40.30996 -3.20109,-0.005"
       style="fill:#262630;fill-opacity:1;fill-rule:nonzero;stroke:none;stroke-width:0.09186479"
       id="path2253"
       inkscape:connector-curvature="0" />
    <path
       d="m 163.54999,296.04148 3.20108,0.002 0.005,-42.41582 h -3.20109 l -0.005,42.41229"
       style="fill:#16171d;fill-opacity:1;fill-rule:nonzero;stroke:none;stroke-width:0.09186479"
       id="path2255"
       inkscape:connector-curvature="0" />
    <path
       d="m 165.81041,296.04148 3.203,0.002 0.003,-42.41582 -3.20108,-0.003 -0.005,42.41583"
       style="fill:#262630;fill-opacity:1;fill-rule:nonzero;stroke:none;stroke-width:0.09186479"
       id="path2257"
       inkscape:connector-curvature="0" />
    <path
       d="m 82.082713,296.03439 h 3.199189 l 0.0081,-42.41405 h -3.203006 l -0.0027,42.41405"
       style="fill:#1c1c1f;fill-opacity:1;fill-rule:nonzero;stroke:none;stroke-width:0.09186479"
       id="path2259"
       inkscape:connector-curvature="0" />
    <path
       d="m 84.344107,296.03439 h 3.199162 l 0.0054,-42.41405 h -3.201084 l -0.0027,42.41405"
       style="fill:#16171d;fill-opacity:1;fill-rule:nonzero;stroke:none;stroke-width:0.09186479"
       id="path2261"
       inkscape:connector-curvature="0" />
    <path
       d="m 142.1642,296.03439 h 3.20013 l 0.008,-42.41405 h -3.203 l -0.005,42.41405"
       style="fill:#1c1c1f;fill-opacity:1;fill-rule:nonzero;stroke:none;stroke-width:0.09186479"
       id="path2263"
       inkscape:connector-curvature="0" />
    <path
       d="m 144.42654,296.03439 h 3.19821 l 0.005,-42.41405 h -3.20009 l -0.003,42.41405"
       style="fill:#16171d;fill-opacity:1;fill-rule:nonzero;stroke:none;stroke-width:0.09186479"
       id="path2265"
       inkscape:connector-curvature="0" />
    <path
       d="m 82.08653,257.97522 73.94873,0.01 v -4.35841 l -73.94873,-0.005 v 4.35488"
       style="fill:#1c1c1f;fill-opacity:1;fill-rule:nonzero;stroke:none;stroke-width:0.09186479"
       id="path2267"
       inkscape:connector-curvature="0" />
    <path
       d="m 151.30143,257.98053 17.98604,0.002 v -4.35487 l -64.98433,-0.005 v 4.3531 l 46.99829,0.005"
       style="fill:#262630;fill-opacity:1;fill-rule:nonzero;stroke:none;stroke-width:0.09186479"
       id="path2269"
       inkscape:connector-curvature="0" />
    <path
       d="m 104.04053,247.38321 h 30.31864 v -24.48777 h -30.31864 z"
       style="fill:#dde3eb;fill-opacity:1;fill-rule:nonzero;stroke:none;stroke-width:0.09186479"
       id="path2271"
       inkscape:connector-curvature="0" />
    <path
       d="m 129.69411,229.22582 h 1.85933 v -2.66081 h -1.85933 v 2.66081"
       style="fill:#1c2026;fill-opacity:1;fill-rule:nonzero;stroke:none;stroke-width:0.09186479"
       id="path2273"
       inkscape:connector-curvature="0" />
    <path
       d="m 131.05589,229.22582 h 1.85935 v -2.66081 h -1.85935 v 2.66081"
       style="fill:#29303b;fill-opacity:1;fill-rule:nonzero;stroke:none;stroke-width:0.09186479"
       id="path2275"
       inkscape:connector-curvature="0" />
    <path
       d="M 89.565931,247.38321 H 129.0517 V 222.89544 H 89.565931 Z"
       style="fill:#d9d9d9;fill-opacity:1;fill-rule:nonzero;stroke:none;stroke-width:0.09186479"
       id="path2277"
       inkscape:connector-curvature="0" />
    <path
       d="m 117.81798,231.68605 h 0.33808 v -1.56946 h -0.33808 v 1.56946"
       style="fill:#1c2026;fill-opacity:1;fill-rule:nonzero;stroke:none;stroke-width:0.09186479"
       id="path2279"
       inkscape:connector-curvature="0" />
    <path
       d="m 89.44942,229.69861 h 12.70312 v -1.26634 H 89.44942 v 1.26634"
       style="fill:#1c2026;fill-opacity:1;fill-rule:nonzero;stroke:none;stroke-width:0.09186479"
       id="path2281"
       inkscape:connector-curvature="0" />
    <path
       d="m 102.41515,224.26474 0.17487,22.01029 c 0.003,0.49401 0.24255,1.23099 0.53288,1.64722 l 3.16194,4.5166 c 0.2903,0.41445 0.0926,0.75114 -0.44217,0.75114 H 86.699192 c -0.524297,0 -0.951168,-0.39326 -0.951168,-0.88017 v -28.04508 h 16.667236"
       style="fill:#d9d9d9;fill-opacity:1;fill-rule:nonzero;stroke:none;stroke-width:0.09186479"
       id="path2283"
       inkscape:connector-curvature="0" />
    <path
       d="m 85.747916,218.86356 c 0,-0.49398 0.433557,-0.89518 0.968357,-0.89518 h 18.170357 c 0.53383,0 0.67901,0.29957 0.32374,0.66896 l -2.17258,2.25608 c -0.35524,0.36938 -0.64078,1.07015 -0.63696,1.56325 l 0.0135,1.98833 H 85.747131 v -5.58144"
       style="fill:#1c2026;fill-opacity:1;fill-rule:nonzero;stroke:none;stroke-width:0.09186479"
       id="path2285"
       inkscape:connector-curvature="0" />
    <path
       d="m 87.049562,225.82271 c 0,-0.37029 0.32468,-0.66986 0.723858,-0.66986 h 8.266306 c 0.399178,0 0.723858,0.29957 0.723858,0.66986 v 7.64841 c 0,0.37114 -0.32468,0.67074 -0.723858,0.67074 H 87.77342 c -0.399178,0 -0.723858,-0.2996 -0.723858,-0.67074 v -7.64841"
       style="fill:#29303b;fill-opacity:1;fill-rule:nonzero;stroke:none;stroke-width:0.09186479"
       id="path2287"
       inkscape:connector-curvature="0" />
    <path
       d="m 86.399226,225.82271 c 0,-0.37029 0.324681,-0.66986 0.724806,-0.66986 h 8.265358 c 0.400126,0 0.724806,0.29957 0.724806,0.66986 v 7.64841 c 0,0.37114 -0.32468,0.67074 -0.724806,0.67074 h -8.265358 c -0.400125,0 -0.724806,-0.2996 -0.724806,-0.67074 v -7.64841"
       style="fill:#1c2026;fill-opacity:1;fill-rule:nonzero;stroke:none;stroke-width:0.09186479"
       id="path2289"
       inkscape:connector-curvature="0" />
    <path
       d="m 86.703848,229.64735 c 0,-2.32767 2.039824,-4.21349 4.552376,-4.21349 2.514474,0 4.554298,1.88582 4.554298,4.21349 0,2.32855 -2.039824,4.21347 -4.554298,4.21347 -2.512552,0 -4.552376,-1.88492 -4.552376,-4.21347"
       style="fill:#d9d9d9;fill-opacity:1;fill-rule:nonzero;stroke:none;stroke-width:0.09186479"
       id="path2291"
       inkscape:connector-curvature="0" />
    <path
       d="m 91.256224,232.89495 c 1.935739,0 3.508602,-1.45812 3.508602,-3.2476 0,-1.79125 -1.572863,-3.24494 -3.508602,-3.24494 -1.933817,0 -3.508575,1.45369 -3.508575,3.24494 0,1.78948 1.574758,3.2476 3.508575,3.2476"
       style="fill:#1c2026;fill-opacity:1;fill-rule:nonzero;stroke:none;stroke-width:0.09186479"
       id="path2293"
       inkscape:connector-curvature="0" />
    <path
       d="m 87.218588,229.64735 c 0,-2.06344 1.806804,-3.73539 4.037636,-3.73539 2.231806,0 4.037662,1.67195 4.037662,3.73539 0,2.06433 -1.805856,3.73715 -4.037662,3.73715 -2.230832,0 -4.037636,-1.67282 -4.037636,-3.73715"
       style="fill:#dde3eb;fill-opacity:1;fill-rule:nonzero;stroke:none;stroke-width:0.09186479"
       id="path2295"
       inkscape:connector-curvature="0" />
    <path
       d="m 91.256224,232.87461 c 1.925236,0 3.487595,-1.4475 3.487595,-3.22726 0,-1.77978 -1.562359,-3.2255 -3.487595,-3.2255 -1.922367,0 -3.487568,1.44572 -3.487568,3.2255 0,1.77976 1.565201,3.22726 3.487568,3.22726"
       style="fill:#1c2026;fill-opacity:1;fill-rule:nonzero;stroke:none;stroke-width:0.09186479"
       id="path2297"
       inkscape:connector-curvature="0" />
    <path
       d="m 91.256224,232.28166 c 1.57094,0 2.846788,-1.18062 2.846788,-2.63431 0,-1.45193 -1.275848,-2.6343 -2.846788,-2.6343 -1.569019,0 -2.846788,1.18237 -2.846788,2.6343 0,1.45369 1.277769,2.63431 2.846788,2.63431"
       style="fill:#dde3eb;fill-opacity:1;fill-rule:nonzero;stroke:none;stroke-width:0.09186479"
       id="path2299"
       inkscape:connector-curvature="0" />
    <path
       d="m 91.256224,231.56674 c 1.145017,0 2.07423,-0.86161 2.07423,-1.91939 0,-1.05955 -0.929213,-1.91941 -2.07423,-1.91941 -1.144043,0 -2.073256,0.85986 -2.073256,1.91941 0,1.05778 0.929213,1.91939 2.073256,1.91939"
       style="fill:#1c2026;fill-opacity:1;fill-rule:nonzero;stroke:none;stroke-width:0.09186479"
       id="path2301"
       inkscape:connector-curvature="0" />
    <path
       d="m 91.256224,230.76966 c 0.667552,0 1.212828,-0.5046 1.212828,-1.12231 0,-0.6177 -0.545276,-1.12052 -1.212828,-1.12052 -0.667525,0 -1.211854,0.50282 -1.211854,1.12052 0,0.61771 0.544329,1.12231 1.211854,1.12231"
       style="fill:#dde3eb;fill-opacity:1;fill-rule:nonzero;stroke:none;stroke-width:0.09186479"
       id="path2303"
       inkscape:connector-curvature="0" />
    <path
       d="m 88.063749,232.93471 0.155653,-0.0601 6.681993,-6.16998 9.2e-4,-0.28279 c -0.08581,-0.0794 -0.223329,-0.0804 -0.307491,0 l -6.684862,6.16823 v 0.28454 l 0.153759,0.0601"
       style="fill:#dde3eb;fill-opacity:1;fill-rule:nonzero;stroke:none;stroke-width:0.09186479"
       id="path2305"
       inkscape:connector-curvature="0" />
    <path
       d="m 94.747636,232.93471 0.154842,-0.0601 -9.48e-4,-0.28454 -6.681965,-6.16823 c -0.08608,-0.0804 -0.224412,-0.0794 -0.309413,0 v 0.28279 l 6.684835,6.16998 0.152947,0.0601"
       style="fill:#dde3eb;fill-opacity:1;fill-rule:nonzero;stroke:none;stroke-width:0.09186479"
       id="path2307"
       inkscape:connector-curvature="0" />
    <path
       d="m 104.04053,224.445 h -2.67969 v -5.58144 c 0,-0.49398 0.43359,-0.89518 0.96741,-0.89518 h 33.74224 c 0.53478,0 0.96739,0.4012 0.96739,0.89518 v 5.58144 h -2.67777 -30.31958"
       style="fill:#29303b;fill-opacity:1;fill-rule:nonzero;stroke:none;stroke-width:0.09186479"
       id="path2309"
       inkscape:connector-curvature="0" />
    <path
       d="m 104.04053,224.4459 v 21.21055 h 30.31958 V 224.4459 h 2.67777 v 27.86392 c 0,0.48691 -0.42687,0.88017 -0.95117,0.88017 h -33.7747 c -0.52524,0 -0.95117,-0.39326 -0.95117,-0.88017 V 224.4459 h 2.67969"
       style="fill:#fcfdfe;fill-opacity:1;fill-rule:nonzero;stroke:none;stroke-width:0.09186479"
       id="path2311"
       inkscape:connector-curvature="0" />
    <path
       d="m 107.6933,244.89028 h 16.02646 v -2.39909 H 107.6933 Z"
       style="fill:#dde3eb;fill-opacity:1;fill-rule:nonzero;stroke:none;stroke-width:0.09186479"
       id="path2313"
       inkscape:connector-curvature="0" />
    <path
       d="m 114.83847,244.89028 h 16.02758 v -2.39909 h -16.02758 z"
       style="fill:#ffffff;fill-opacity:1;fill-rule:nonzero;stroke:none;stroke-width:0.09186479"
       id="path2315"
       inkscape:connector-curvature="0" />
    <path
       d="m 105.03847,245.65557 h 21.14121 v -2.26414 h -21.14121 z"
       style="fill:#1c2026;fill-opacity:1;fill-rule:nonzero;stroke:none;stroke-width:0.09186479"
       id="path2317"
       inkscape:connector-curvature="0" />
    <path
       d="m 111.11309,245.65557 h 22.40836 v -2.26414 h -22.40836 z"
       style="fill:#29303b;fill-opacity:1;fill-rule:nonzero;stroke:none;stroke-width:0.09186479"
       id="path2319"
       inkscape:connector-curvature="0" />
    <path
       d="m 119.87692,225.98618 c -0.17298,0 -0.31418,0.13001 -0.31418,0.29073 v 3.15304 c 0,0.16082 0.14131,0.29075 0.31418,0.29075 h 3.01679 c 0.17298,0 0.31515,-0.13001 0.31515,-0.29075 v -3.15304 c 0,-0.16082 -0.14239,-0.29073 -0.31515,-0.29073 z m -0.65223,3.44377 v -3.15304 c 0,-0.33314 0.29222,-0.60445 0.65223,-0.60445 h 3.01679 c 0.36003,0 0.6532,0.27131 0.6532,0.60445 v 3.15304 c 0,0.33316 -0.29317,0.60445 -0.6532,0.60445 h -3.01679 c -0.36001,0 -0.65223,-0.27129 -0.65223,-0.60445"
       style="fill:#1c2026;fill-opacity:1;fill-rule:nonzero;stroke:none;stroke-width:0.09186479"
       id="path2321"
       inkscape:connector-curvature="0" />
    <path
       d="m 104.04053,237.23127 h 2.02455 c 0.36098,0 0.65321,-0.27132 0.65321,-0.60445 v -3.15304 h -0.33808 v 3.15304 c 0,0.16082 -0.14131,0.2925 -0.31513,0.2925 h -2.02455 v 0.31195"
       style="fill:#1c2026;fill-opacity:1;fill-rule:nonzero;stroke:none;stroke-width:0.09186479"
       id="path2323"
       inkscape:connector-curvature="0" />
    <path
       d="m 113.71733,225.17407 c -0.17298,0 -0.31421,0.13001 -0.31421,0.2916 v 3.15129 c 0,0.16082 0.14131,0.29163 0.31421,0.29163 h 5.97432 c 0.17379,0 0.31515,-0.13076 0.31515,-0.29163 v -3.15129 c 0,-0.16182 -0.14131,-0.2916 -0.31515,-0.2916 z m -0.65321,3.44289 v -3.15129 c 0,-0.33313 0.29317,-0.60532 0.65321,-0.60532 h 5.97432 c 0.36003,0 0.6532,0.27219 0.6532,0.60532 v 3.15129 c 0,0.33316 -0.29317,0.60445 -0.6532,0.60445 h -5.97432 c -0.36004,0 -0.65321,-0.27129 -0.65321,-0.60445"
       style="fill:#1c2026;fill-opacity:1;fill-rule:nonzero;stroke:none;stroke-width:0.09186479"
       id="path2325"
       inkscape:connector-curvature="0" />
    <path
       d="m 104.04053,228.52858 h 26.48918 v -1.26634 h -26.48918 v 1.26634"
       style="fill:#1c2026;fill-opacity:1;fill-rule:nonzero;stroke:none;stroke-width:0.09186479"
       id="path2327"
       inkscape:connector-curvature="0" />
    <path
       d="m 104.04053,229.22582 h 1.85837 v -3.74599 h -1.85837 v 3.74599"
       style="fill:#29303b;fill-opacity:1;fill-rule:nonzero;stroke:none;stroke-width:0.09186479"
       id="path2329"
       inkscape:connector-curvature="0" />
    <path
       d="m 125.86751,222.95243 v -3.67089 h -13.10709 v 3.67089 h 13.10709"
       style="fill:#1c2026;fill-opacity:1;fill-rule:nonzero;stroke:none;stroke-width:0.09186479"
       id="path2331"
       inkscape:connector-curvature="0" />
    <path
       d="m 113.1472,219.63945 h 12.33353 v 2.95422 H 113.1472 v -2.95422"
       style="fill:#5197d8;fill-opacity:1;fill-rule:nonzero;stroke:none;stroke-width:0.09186479"
       id="path2333"
       inkscape:connector-curvature="0" />
    <path
       d="m 114.01718,220.60534 h 10.59357 v -0.6301 h -10.59357 v 0.6301"
       style="fill:#fcfdfe;fill-opacity:1;fill-rule:nonzero;stroke:none;stroke-width:0.09186479"
       id="path2335"
       inkscape:connector-curvature="0" />
    <path
       d="m 121.83272,221.37502 h 3.31854 v -0.41973 h -3.31854 v 0.41973"
       style="fill:#fcfdfe;fill-opacity:1;fill-rule:nonzero;stroke:none;stroke-width:0.09186479"
       id="path2337"
       inkscape:connector-curvature="0" />
    <path
       d="m 119.96766,221.37502 h 1.44011 v -0.41973 h -1.44011 v 0.41973"
       style="fill:#fcfdfe;fill-opacity:1;fill-rule:nonzero;stroke:none;stroke-width:0.09186479"
       id="path2339"
       inkscape:connector-curvature="0" />
    <path
       d="m 115.34173,221.37502 h 3.31854 v -0.41973 h -3.31854 v 0.41973"
       style="fill:#fcfdfe;fill-opacity:1;fill-rule:nonzero;stroke:none;stroke-width:0.09186479"
       id="path2341"
       inkscape:connector-curvature="0" />
    <path
       d="m 113.47762,221.37502 h 1.43916 v -0.41973 h -1.43916 v 0.41973"
       style="fill:#fcfdfe;fill-opacity:1;fill-rule:nonzero;stroke:none;stroke-width:0.09186479"
       id="path2343"
       inkscape:connector-curvature="0" />
    <path
       d="m 121.83272,222.27376 h 3.31854 v -0.42154 h -3.31854 v 0.42154"
       style="fill:#fcfdfe;fill-opacity:1;fill-rule:nonzero;stroke:none;stroke-width:0.09186479"
       id="path2345"
       inkscape:connector-curvature="0" />
    <path
       d="m 119.96766,222.27376 h 1.44011 v -0.42154 h -1.44011 v 0.42154"
       style="fill:#fcfdfe;fill-opacity:1;fill-rule:nonzero;stroke:none;stroke-width:0.09186479"
       id="path2347"
       inkscape:connector-curvature="0" />
    <path
       d="m 115.34173,222.27376 h 3.31854 v -0.42154 h -3.31854 v 0.42154"
       style="fill:#fcfdfe;fill-opacity:1;fill-rule:nonzero;stroke:none;stroke-width:0.09186479"
       id="path2349"
       inkscape:connector-curvature="0" />
    <path
       d="m 113.47762,222.27376 h 1.43916 v -0.42154 h -1.43916 v 0.42154"
       style="fill:#fcfdfe;fill-opacity:1;fill-rule:nonzero;stroke:none;stroke-width:0.09186479"
       id="path2351"
       inkscape:connector-curvature="0" />
    <path
       d="m 104.04053,251.80699 h 30.31977 v -4.65978 h -30.31977 z"
       style="fill:#dde3eb;fill-opacity:1;fill-rule:nonzero;stroke:none;stroke-width:0.09186479"
       id="path2353"
       inkscape:connector-curvature="0" />
    <path
       d="m 126.3087,251.0691 h 6.24556 c 0.53288,0 0.96738,-0.4012 0.96738,-0.89518 v -1.39184 c 0,-0.49573 -0.4345,-0.89605 -0.96738,-0.89605 h -6.24556 c -0.53382,0 -0.96738,0.40032 -0.96738,0.89605 v 1.39184 c 0,0.49398 0.43356,0.89518 0.96738,0.89518"
       style="fill:#fcfdfe;fill-opacity:1;fill-rule:nonzero;stroke:none;stroke-width:0.09186479"
       id="path2355"
       inkscape:connector-curvature="0" />
    <path
       d="m 132.55426,250.62196 c 0.26637,0 0.48225,-0.2014 0.48225,-0.44804 v -1.39184 c 0,-0.24824 -0.21575,-0.44891 -0.48225,-0.44891 h -6.24556 c -0.26637,0 -0.4832,0.20065 -0.4832,0.44891 v 1.39184 c 0,0.24649 0.21683,0.44804 0.4832,0.44804 h 6.24556"
       style="fill:#5197d8;fill-opacity:1;fill-rule:nonzero;stroke:none;stroke-width:0.09186479"
       id="path2357"
       inkscape:connector-curvature="0" />
    <path
       d="m 116.86684,249.80542 c 0,0.61241 0.53575,1.10905 1.19848,1.10905 h 1.38473 c 0.66181,0 1.19851,-0.49664 1.19851,-1.10905 v -0.65571 c 0,-0.61329 -0.5367,-1.10815 -1.19851,-1.10815 h -1.38473 c -0.66273,0 -1.19848,0.49486 -1.19848,1.10815 v 0.65571"
       style="fill:#d9d9d9;fill-opacity:1;fill-rule:nonzero;stroke:none;stroke-width:0.09186479"
       id="path2359"
       inkscape:connector-curvature="0" />
    <path
       d="m 117.48088,249.80542 c 0,0.61241 0.53574,1.10905 1.19756,1.10905 h 1.38662 c 0.66084,0 1.1985,-0.49664 1.1985,-1.10905 v -0.65571 c 0,-0.61329 -0.53766,-1.10815 -1.1985,-1.10815 h -1.38662 c -0.66182,0 -1.19756,0.49486 -1.19756,1.10815 v 0.65571"
       style="fill:#ffffff;fill-opacity:1;fill-rule:nonzero;stroke:none;stroke-width:0.09186479"
       id="path2361"
       inkscape:connector-curvature="0" />
    <path
       d="m 110.94883,249.80542 c 0,0.61241 0.53672,1.10905 1.1985,1.10905 h 1.38568 c 0.66181,0 1.19753,-0.49664 1.19753,-1.10905 v -0.65571 c 0,-0.61329 -0.53572,-1.10815 -1.19753,-1.10815 h -1.38568 c -0.66178,0 -1.1985,0.49486 -1.1985,1.10815 v 0.65571"
       style="fill:#d9d9d9;fill-opacity:1;fill-rule:nonzero;stroke:none;stroke-width:0.09186479"
       id="path2363"
       inkscape:connector-curvature="0" />
    <path
       d="m 111.56384,249.80542 c 0,0.61241 0.53574,1.10905 1.19756,1.10905 h 1.38662 c 0.66083,0 1.19753,-0.49664 1.19753,-1.10905 v -0.65571 c 0,-0.61329 -0.5367,-1.10815 -1.19753,-1.10815 h -1.38662 c -0.66182,0 -1.19756,0.49486 -1.19756,1.10815 v 0.65571"
       style="fill:#ffffff;fill-opacity:1;fill-rule:nonzero;stroke:none;stroke-width:0.09186479"
       id="path2365"
       inkscape:connector-curvature="0" />
    <path
       d="m 105.03084,249.80542 c 0,0.61241 0.53574,1.10905 1.19851,1.10905 h 1.38567 c 0.66178,0 1.19848,-0.49664 1.19848,-1.10905 v -0.65571 c 0,-0.61329 -0.5367,-1.10815 -1.19848,-1.10815 h -1.38567 c -0.66277,0 -1.19851,0.49486 -1.19851,1.10815 v 0.65571"
       style="fill:#d9d9d9;fill-opacity:1;fill-rule:nonzero;stroke:none;stroke-width:0.09186479"
       id="path2367"
       inkscape:connector-curvature="0" />
    <path
       d="m 105.6449,249.80542 c 0,0.61241 0.53669,1.10905 1.19848,1.10905 h 1.38665 c 0.66083,0 1.19848,-0.49664 1.19848,-1.10905 v -0.65571 c 0,-0.61329 -0.53765,-1.10815 -1.19848,-1.10815 h -1.38665 c -0.66179,0 -1.19848,0.49486 -1.19848,1.10815 v 0.65571"
       style="fill:#ffffff;fill-opacity:1;fill-rule:nonzero;stroke:none;stroke-width:0.09186479"
       id="path2369"
       inkscape:connector-curvature="0" />
    <path
       d="m 99.973276,248.40917 c 0,-0.21568 0.190034,-0.39236 0.425924,-0.39236 0.23199,0 0.42305,0.1766 0.42305,0.39236 0,0.21818 -0.19111,0.39148 -0.42305,0.39148 -0.23578,0 -0.425924,-0.1731 -0.425924,-0.39148"
       style="fill:#91a2b8;fill-opacity:1;fill-rule:nonzero;stroke:none;stroke-width:0.09186479"
       id="path2371"
       inkscape:connector-curvature="0" />
    <path
       d="m 98.633434,248.40917 c 0,-0.21568 0.190034,-0.39236 0.424976,-0.39236 0.23497,0 0.422107,0.1766 0.422107,0.39236 0,0.21818 -0.187056,0.39148 -0.422107,0.39148 -0.23497,0 -0.424976,-0.1731 -0.424976,-0.39148"
       style="fill:#91a2b8;fill-opacity:1;fill-rule:nonzero;stroke:none;stroke-width:0.09186479"
       id="path2373"
       inkscape:connector-curvature="0" />
    <path
       d="m 97.293593,248.40917 c 0,-0.21568 0.18895,-0.39236 0.425923,-0.39236 0.233887,0 0.421159,0.1766 0.421159,0.39236 0,0.21818 -0.187326,0.39148 -0.421159,0.39148 -0.236865,0 -0.425923,-0.1731 -0.425923,-0.39148"
       style="fill:#91a2b8;fill-opacity:1;fill-rule:nonzero;stroke:none;stroke-width:0.09186479"
       id="path2375"
       inkscape:connector-curvature="0" />
    <path
       d="m 95.954725,248.40917 c 0,-0.21568 0.190033,-0.39236 0.423054,-0.39236 0.23497,0 0.424976,0.1766 0.424976,0.39236 0,0.21818 -0.190033,0.39148 -0.424976,0.39148 -0.233075,0 -0.423054,-0.1731 -0.423054,-0.39148"
       style="fill:#91a2b8;fill-opacity:1;fill-rule:nonzero;stroke:none;stroke-width:0.09186479"
       id="path2377"
       inkscape:connector-curvature="0" />
    <path
       d="m 94.614883,248.40917 c 0,-0.21568 0.191928,-0.39236 0.424029,-0.39236 0.23497,0 0.425923,0.1766 0.425923,0.39236 0,0.21818 -0.191116,0.39148 -0.425923,0.39148 -0.231992,0 -0.424029,-0.1731 -0.424029,-0.39148"
       style="fill:#91a2b8;fill-opacity:1;fill-rule:nonzero;stroke:none;stroke-width:0.09186479"
       id="path2379"
       inkscape:connector-curvature="0" />
    <path
       d="m 93.276016,248.40917 c 0,-0.21568 0.189221,-0.39236 0.423054,-0.39236 0.235782,0 0.427818,0.1766 0.427818,0.39236 0,0.21818 -0.191928,0.39148 -0.427818,0.39148 -0.233887,0 -0.423054,-0.1731 -0.423054,-0.39148"
       style="fill:#91a2b8;fill-opacity:1;fill-rule:nonzero;stroke:none;stroke-width:0.09186479"
       id="path2381"
       inkscape:connector-curvature="0" />
    <path
       d="m 91.937122,248.40917 c 0,-0.21568 0.189221,-0.39236 0.424028,-0.39236 0.233075,0 0.424001,0.1766 0.424001,0.39236 0,0.21818 -0.190845,0.39148 -0.424001,0.39148 -0.23497,0 -0.424028,-0.1731 -0.424028,-0.39148"
       style="fill:#91a2b8;fill-opacity:1;fill-rule:nonzero;stroke:none;stroke-width:0.09186479"
       id="path2383"
       inkscape:connector-curvature="0" />
    <path
       d="m 90.598254,248.40917 c 0,-0.21568 0.187056,-0.39236 0.423054,-0.39236 0.233887,0 0.424002,0.1766 0.424002,0.39236 0,0.21818 -0.190034,0.39148 -0.424002,0.39148 -0.235782,0 -0.423054,-0.1731 -0.423054,-0.39148"
       style="fill:#91a2b8;fill-opacity:1;fill-rule:nonzero;stroke:none;stroke-width:0.09186479"
       id="path2385"
       inkscape:connector-curvature="0" />
    <path
       d="m 89.258413,248.40917 c 0,-0.21568 0.188138,-0.39236 0.424975,-0.39236 0.233075,0 0.424002,0.1766 0.424002,0.39236 0,0.21818 -0.190846,0.39148 -0.424002,0.39148 -0.236864,0 -0.424975,-0.1731 -0.424975,-0.39148"
       style="fill:#91a2b8;fill-opacity:1;fill-rule:nonzero;stroke:none;stroke-width:0.09186479"
       id="path2387"
       inkscape:connector-curvature="0" />
    <path
       d="m 87.919545,248.40917 c 0,-0.21568 0.189221,-0.39236 0.422107,-0.39236 0.235782,0 0.425896,0.1766 0.425896,0.39236 0,0.21818 -0.190033,0.39148 -0.425896,0.39148 -0.233075,0 -0.422107,-0.1731 -0.422107,-0.39148"
       style="fill:#91a2b8;fill-opacity:1;fill-rule:nonzero;stroke:none;stroke-width:0.09186479"
       id="path2389"
       inkscape:connector-curvature="0" />
    <path
       d="m 86.578756,248.40917 c 0,-0.21568 0.190033,-0.39236 0.423054,-0.39236 0.233075,0 0.424949,0.1766 0.424949,0.39236 0,0.21818 -0.191928,0.39148 -0.424949,0.39148 -0.233075,0 -0.423054,-0.1731 -0.423054,-0.39148"
       style="fill:#91a2b8;fill-opacity:1;fill-rule:nonzero;stroke:none;stroke-width:0.09186479"
       id="path2391"
       inkscape:connector-curvature="0" />
    <path
       d="m 99.973276,249.96361 c 0,-0.21744 0.190034,-0.39326 0.425924,-0.39326 0.23199,0 0.42305,0.17585 0.42305,0.39326 0,0.21643 -0.19111,0.39413 -0.42305,0.39413 -0.23578,0 -0.425924,-0.1776 -0.425924,-0.39413"
       style="fill:#91a2b8;fill-opacity:1;fill-rule:nonzero;stroke:none;stroke-width:0.09186479"
       id="path2393"
       inkscape:connector-curvature="0" />
    <path
       d="m 98.633434,249.96361 c 0,-0.21744 0.190034,-0.39326 0.424976,-0.39326 0.23497,0 0.422107,0.17585 0.422107,0.39326 0,0.21643 -0.187056,0.39413 -0.422107,0.39413 -0.23497,0 -0.424976,-0.1776 -0.424976,-0.39413"
       style="fill:#91a2b8;fill-opacity:1;fill-rule:nonzero;stroke:none;stroke-width:0.09186479"
       id="path2395"
       inkscape:connector-curvature="0" />
    <path
       d="m 97.293593,249.96361 c 0,-0.21744 0.18895,-0.39326 0.425923,-0.39326 0.233887,0 0.421159,0.17585 0.421159,0.39326 0,0.21643 -0.187326,0.39413 -0.421159,0.39413 -0.236865,0 -0.425923,-0.1776 -0.425923,-0.39413"
       style="fill:#91a2b8;fill-opacity:1;fill-rule:nonzero;stroke:none;stroke-width:0.09186479"
       id="path2397"
       inkscape:connector-curvature="0" />
    <path
       d="m 95.954725,249.96361 c 0,-0.21744 0.190033,-0.39326 0.423054,-0.39326 0.23497,0 0.424976,0.17585 0.424976,0.39326 0,0.21643 -0.190033,0.39413 -0.424976,0.39413 -0.233075,0 -0.423054,-0.1776 -0.423054,-0.39413"
       style="fill:#91a2b8;fill-opacity:1;fill-rule:nonzero;stroke:none;stroke-width:0.09186479"
       id="path2399"
       inkscape:connector-curvature="0" />
    <path
       d="m 94.614883,249.96361 c 0,-0.21744 0.191928,-0.39326 0.424029,-0.39326 0.23497,0 0.425923,0.17585 0.425923,0.39326 0,0.21643 -0.191116,0.39413 -0.425923,0.39413 -0.231992,0 -0.424029,-0.1776 -0.424029,-0.39413"
       style="fill:#91a2b8;fill-opacity:1;fill-rule:nonzero;stroke:none;stroke-width:0.09186479"
       id="path2401"
       inkscape:connector-curvature="0" />
    <path
       d="m 93.276016,249.96361 c 0,-0.21744 0.189221,-0.39326 0.423054,-0.39326 0.235782,0 0.427818,0.17585 0.427818,0.39326 0,0.21643 -0.191928,0.39413 -0.427818,0.39413 -0.233887,0 -0.423054,-0.1776 -0.423054,-0.39413"
       style="fill:#91a2b8;fill-opacity:1;fill-rule:nonzero;stroke:none;stroke-width:0.09186479"
       id="path2403"
       inkscape:connector-curvature="0" />
    <path
       d="m 91.937122,249.96361 c 0,-0.21744 0.189221,-0.39326 0.424028,-0.39326 0.233075,0 0.424001,0.17585 0.424001,0.39326 0,0.21643 -0.190845,0.39413 -0.424001,0.39413 -0.23497,0 -0.424028,-0.1776 -0.424028,-0.39413"
       style="fill:#91a2b8;fill-opacity:1;fill-rule:nonzero;stroke:none;stroke-width:0.09186479"
       id="path2405"
       inkscape:connector-curvature="0" />
    <path
       d="m 90.598254,249.96361 c 0,-0.21744 0.187056,-0.39326 0.423054,-0.39326 0.233887,0 0.424002,0.17585 0.424002,0.39326 0,0.21643 -0.190034,0.39413 -0.424002,0.39413 -0.235782,0 -0.423054,-0.1776 -0.423054,-0.39413"
       style="fill:#91a2b8;fill-opacity:1;fill-rule:nonzero;stroke:none;stroke-width:0.09186479"
       id="path2407"
       inkscape:connector-curvature="0" />
    <path
       d="m 89.258413,249.96361 c 0,-0.21744 0.188138,-0.39326 0.424975,-0.39326 0.233075,0 0.424002,0.17585 0.424002,0.39326 0,0.21643 -0.190846,0.39413 -0.424002,0.39413 -0.236864,0 -0.424975,-0.1776 -0.424975,-0.39413"
       style="fill:#91a2b8;fill-opacity:1;fill-rule:nonzero;stroke:none;stroke-width:0.09186479"
       id="path2409"
       inkscape:connector-curvature="0" />
    <path
       d="m 87.919545,249.96361 c 0,-0.21744 0.189221,-0.39326 0.422107,-0.39326 0.235782,0 0.425896,0.17585 0.425896,0.39326 0,0.21643 -0.190033,0.39413 -0.425896,0.39413 -0.233075,0 -0.422107,-0.1776 -0.422107,-0.39413"
       style="fill:#91a2b8;fill-opacity:1;fill-rule:nonzero;stroke:none;stroke-width:0.09186479"
       id="path2411"
       inkscape:connector-curvature="0" />
    <path
       d="m 86.578756,249.96361 c 0,-0.21744 0.190033,-0.39326 0.423054,-0.39326 0.233075,0 0.424949,0.17585 0.424949,0.39326 0,0.21643 -0.191928,0.39413 -0.424949,0.39413 -0.233075,0 -0.423054,-0.1776 -0.423054,-0.39413"
       style="fill:#91a2b8;fill-opacity:1;fill-rule:nonzero;stroke:none;stroke-width:0.09186479"
       id="path2413"
       inkscape:connector-curvature="0" />
    <path
       d="m 99.973276,251.52776 c 0,-0.21568 0.190034,-0.39238 0.425924,-0.39238 0.23199,0 0.42305,0.17685 0.42305,0.39238 0,0.21568 -0.19111,0.39148 -0.42305,0.39148 -0.23578,0 -0.425924,-0.17585 -0.425924,-0.39148"
       style="fill:#91a2b8;fill-opacity:1;fill-rule:nonzero;stroke:none;stroke-width:0.09186479"
       id="path2415"
       inkscape:connector-curvature="0" />
    <path
       d="m 98.633434,251.52776 c 0,-0.21568 0.190034,-0.39238 0.424976,-0.39238 0.23497,0 0.422107,0.17685 0.422107,0.39238 0,0.21568 -0.187056,0.39148 -0.422107,0.39148 -0.23497,0 -0.424976,-0.17585 -0.424976,-0.39148"
       style="fill:#91a2b8;fill-opacity:1;fill-rule:nonzero;stroke:none;stroke-width:0.09186479"
       id="path2417"
       inkscape:connector-curvature="0" />
    <path
       d="m 97.293593,251.52776 c 0,-0.21568 0.18895,-0.39238 0.425923,-0.39238 0.233887,0 0.421159,0.17685 0.421159,0.39238 0,0.21568 -0.187326,0.39148 -0.421159,0.39148 -0.236865,0 -0.425923,-0.17585 -0.425923,-0.39148"
       style="fill:#91a2b8;fill-opacity:1;fill-rule:nonzero;stroke:none;stroke-width:0.09186479"
       id="path2419"
       inkscape:connector-curvature="0" />
    <path
       d="m 95.954725,251.52776 c 0,-0.21568 0.190033,-0.39238 0.423054,-0.39238 0.23497,0 0.424976,0.17685 0.424976,0.39238 0,0.21568 -0.190033,0.39148 -0.424976,0.39148 -0.233075,0 -0.423054,-0.17585 -0.423054,-0.39148"
       style="fill:#91a2b8;fill-opacity:1;fill-rule:nonzero;stroke:none;stroke-width:0.09186479"
       id="path2421"
       inkscape:connector-curvature="0" />
    <path
       d="m 94.614883,251.52776 c 0,-0.21568 0.191928,-0.39238 0.424029,-0.39238 0.23497,0 0.425923,0.17685 0.425923,0.39238 0,0.21568 -0.191116,0.39148 -0.425923,0.39148 -0.231992,0 -0.424029,-0.17585 -0.424029,-0.39148"
       style="fill:#91a2b8;fill-opacity:1;fill-rule:nonzero;stroke:none;stroke-width:0.09186479"
       id="path2423"
       inkscape:connector-curvature="0" />
    <path
       d="m 93.276016,251.52776 c 0,-0.21568 0.189221,-0.39238 0.423054,-0.39238 0.235782,0 0.427818,0.17685 0.427818,0.39238 0,0.21568 -0.191928,0.39148 -0.427818,0.39148 -0.233887,0 -0.423054,-0.17585 -0.423054,-0.39148"
       style="fill:#91a2b8;fill-opacity:1;fill-rule:nonzero;stroke:none;stroke-width:0.09186479"
       id="path2425"
       inkscape:connector-curvature="0" />
    <path
       d="m 91.937122,251.52776 c 0,-0.21568 0.189221,-0.39238 0.424028,-0.39238 0.233075,0 0.424001,0.17685 0.424001,0.39238 0,0.21568 -0.190845,0.39148 -0.424001,0.39148 -0.23497,0 -0.424028,-0.17585 -0.424028,-0.39148"
       style="fill:#91a2b8;fill-opacity:1;fill-rule:nonzero;stroke:none;stroke-width:0.09186479"
       id="path2427"
       inkscape:connector-curvature="0" />
    <path
       d="m 90.598254,251.52776 c 0,-0.21568 0.187056,-0.39238 0.423054,-0.39238 0.233887,0 0.424002,0.17685 0.424002,0.39238 0,0.21568 -0.190034,0.39148 -0.424002,0.39148 -0.235782,0 -0.423054,-0.17585 -0.423054,-0.39148"
       style="fill:#91a2b8;fill-opacity:1;fill-rule:nonzero;stroke:none;stroke-width:0.09186479"
       id="path2429"
       inkscape:connector-curvature="0" />
    <path
       d="m 89.258413,251.52776 c 0,-0.21568 0.188138,-0.39238 0.424975,-0.39238 0.233075,0 0.424002,0.17685 0.424002,0.39238 0,0.21568 -0.190846,0.39148 -0.424002,0.39148 -0.236864,0 -0.424975,-0.17585 -0.424975,-0.39148"
       style="fill:#91a2b8;fill-opacity:1;fill-rule:nonzero;stroke:none;stroke-width:0.09186479"
       id="path2431"
       inkscape:connector-curvature="0" />
    <path
       d="m 87.919545,251.52776 c 0,-0.21568 0.189221,-0.39238 0.422107,-0.39238 0.235782,0 0.425896,0.17685 0.425896,0.39238 0,0.21568 -0.190033,0.39148 -0.425896,0.39148 -0.233075,0 -0.422107,-0.17585 -0.422107,-0.39148"
       style="fill:#91a2b8;fill-opacity:1;fill-rule:nonzero;stroke:none;stroke-width:0.09186479"
       id="path2433"
       inkscape:connector-curvature="0" />
    <path
       d="m 86.578756,251.52776 c 0,-0.21568 0.190033,-0.39238 0.423054,-0.39238 0.233075,0 0.424949,0.17685 0.424949,0.39238 0,0.21568 -0.191928,0.39148 -0.424949,0.39148 -0.233075,0 -0.423054,-0.17585 -0.423054,-0.39148"
       style="fill:#91a2b8;fill-opacity:1;fill-rule:nonzero;stroke:none;stroke-width:0.09186479"
       id="path2435"
       inkscape:connector-curvature="0" />
    <path
       d="m 113.95224,226.76473 h 9.07325 v -1.10199 h -9.07325 v 1.10199"
       style="fill:#1c2026;fill-opacity:1;fill-rule:nonzero;stroke:none;stroke-width:0.09186479"
       id="path2437"
       inkscape:connector-curvature="0" />
    <path
       d="m 115.69316,226.76473 h 4.77013 v 3.41901 l -0.73916,0.59033 h -3.29182 l -0.73915,-0.59033 v -3.41901"
       style="fill:#1c2026;fill-opacity:1;fill-rule:nonzero;stroke:none;stroke-width:0.09186479"
       id="path2439"
       inkscape:connector-curvature="0" />
    <path
       d="m 118.48935,231.95028 h 1.08008 v -2.35065 h -1.08008 v 2.35065"
       style="fill:#1c2026;fill-opacity:1;fill-rule:nonzero;stroke:none;stroke-width:0.09186479"
       id="path2441"
       inkscape:connector-curvature="0" />
    <path
       d="m 114.85661,226.76473 h 9.07324 v -1.10199 h -9.07324 v 1.10199"
       style="fill:#29303b;fill-opacity:1;fill-rule:nonzero;stroke:none;stroke-width:0.09186479"
       id="path2443"
       inkscape:connector-curvature="0" />
    <path
       d="m 117.00818,226.76473 h 4.7701 v 3.41901 l -0.73915,0.59033 h -3.2918 l -0.73915,-0.59033 v -3.41901"
       style="fill:#29303b;fill-opacity:1;fill-rule:nonzero;stroke:none;stroke-width:0.09186479"
       id="path2445"
       inkscape:connector-curvature="0" />
    <path
       d="m 118.8532,231.95028 h 1.08103 v -2.35065 h -1.08103 v 2.35065"
       style="fill:#29303b;fill-opacity:1;fill-rule:nonzero;stroke:none;stroke-width:0.09186479"
       id="path2447"
       inkscape:connector-curvature="0" />
    <path
       d="m 120.45947,232.76592 h 0.52045 v -1.19918 h -0.52045 v 1.19918"
       style="fill:#dde3eb;fill-opacity:1;fill-rule:nonzero;stroke:none;stroke-width:0.09186479"
       id="path2449"
       inkscape:connector-curvature="0" />
    <path
       d="m 120.55974,234.22492 h 0.31991 v -1.94769 h -0.31991 v 1.94769"
       style="fill:#dde3eb;fill-opacity:1;fill-rule:nonzero;stroke:none;stroke-width:0.09186479"
       id="path2451"
       inkscape:connector-curvature="0" />
    <path
       d="m 120.67625,234.64556 -0.1164,-0.42064 h 0.31991 l -0.11559,0.42064 h -0.088"
       style="fill:#29303b;fill-opacity:1;fill-rule:nonzero;stroke:none;stroke-width:0.09186479"
       id="path2453"
       inkscape:connector-curvature="0" />
    <path
       d="m 120.18538,232.89936 h 1.06863 v -0.48869 h -1.06863 v 0.48869"
       style="fill:#29303b;fill-opacity:1;fill-rule:nonzero;stroke:none;stroke-width:0.09186479"
       id="path2455"
       inkscape:connector-curvature="0" />
    <path
       d="m 119.02412,232.76592 h 0.52143 v -1.19918 h -0.52143 v 1.19918"
       style="fill:#dde3eb;fill-opacity:1;fill-rule:nonzero;stroke:none;stroke-width:0.09186479"
       id="path2457"
       inkscape:connector-curvature="0" />
    <path
       d="m 119.12537,234.22492 h 0.31897 v -1.94769 h -0.31897 v 1.94769"
       style="fill:#dde3eb;fill-opacity:1;fill-rule:nonzero;stroke:none;stroke-width:0.09186479"
       id="path2459"
       inkscape:connector-curvature="0" />
    <path
       d="m 119.2409,234.64556 -0.11559,-0.42064 h 0.31897 l -0.1164,0.42064 h -0.0869"
       style="fill:#29303b;fill-opacity:1;fill-rule:nonzero;stroke:none;stroke-width:0.09186479"
       id="path2461"
       inkscape:connector-curvature="0" />
    <path
       d="m 118.75007,232.89936 h 1.06859 v -0.48869 h -1.06859 v 0.48869"
       style="fill:#29303b;fill-opacity:1;fill-rule:nonzero;stroke:none;stroke-width:0.09186479"
       id="path2463"
       inkscape:connector-curvature="0" />
    <path
       d="m 117.58881,232.76592 h 0.52045 v -1.19918 h -0.52045 v 1.19918"
       style="fill:#dde3eb;fill-opacity:1;fill-rule:nonzero;stroke:none;stroke-width:0.09186479"
       id="path2465"
       inkscape:connector-curvature="0" />
    <path
       d="m 117.68907,234.22492 h 0.31992 v -1.94769 h -0.31992 v 1.94769"
       style="fill:#dde3eb;fill-opacity:1;fill-rule:nonzero;stroke:none;stroke-width:0.09186479"
       id="path2467"
       inkscape:connector-curvature="0" />
    <path
       d="m 117.80464,234.64556 -0.11559,-0.42064 h 0.31991 l -0.11559,0.42064 h -0.0888"
       style="fill:#29303b;fill-opacity:1;fill-rule:nonzero;stroke:none;stroke-width:0.09186479"
       id="path2469"
       inkscape:connector-curvature="0" />
    <path
       d="m 117.31472,232.89936 h 1.06862 v -0.48869 h -1.06862 v 0.48869"
       style="fill:#29303b;fill-opacity:1;fill-rule:nonzero;stroke:none;stroke-width:0.09186479"
       id="path2471"
       inkscape:connector-curvature="0" />
    <path
       d="m 109.79236,231.96794 h 8.02562 v -0.31282 h -8.02562 c -0.17379,0 -0.31418,-0.13177 -0.31418,-0.29076 v -4.94076 l 0.008,-0.0699 -0.32852,-0.0706 -0.0162,0.14053 v 4.94076 c 0,0.33317 0.29222,0.60358 0.65225,0.60358"
       style="fill:#1c2026;fill-opacity:1;fill-rule:nonzero;stroke:none;stroke-width:0.09186479"
       id="path2473"
       inkscape:connector-curvature="0" />
    <path
       d="m 116.86684,232.08106 h 4.17897 v -0.65307 h -4.17897 v 0.65307"
       style="fill:#dde3eb;fill-opacity:1;fill-rule:nonzero;stroke:none;stroke-width:0.09186479"
       id="path2475"
       inkscape:connector-curvature="0" />
    <path
       d="m 117.21827,232.08106 h 4.17899 v -0.65307 h -4.17899 v 0.65307"
       style="fill:#fcfdfe;fill-opacity:1;fill-rule:nonzero;stroke:none;stroke-width:0.09186479"
       id="path2477"
       inkscape:connector-curvature="0" />
    <path
       d="m 104.04053,226.48723 h 9.10667 v -0.31458 h -9.10667 v 0.31458"
       style="fill:#1c2026;fill-opacity:1;fill-rule:nonzero;stroke:none;stroke-width:0.09186479"
       id="path2479"
       inkscape:connector-curvature="0" />
    <path
       d="m 112.99057,242.49104 h 7.54248 v -6.9612 h -7.54248 z"
       style="fill:#c9252c;fill-opacity:1;fill-rule:nonzero;stroke:none;stroke-width:0.09186479"
       id="path2481"
       inkscape:connector-curvature="0" />
    <path
       d="m 118.59344,242.49104 h 6.33343 v -6.9612 h -6.33343 z"
       style="fill:#ef2f3f;fill-opacity:1;fill-rule:nonzero;stroke:none;stroke-width:0.09186479"
       id="path2483"
       inkscape:connector-curvature="0" />
    <path
       d="m 106.28376,234.57309 h 0.52048 v -0.91818 h -0.52048 v 0.91818"
       style="fill:#29303b;fill-opacity:1;fill-rule:nonzero;stroke:none;stroke-width:0.09186479"
       id="path2485"
       inkscape:connector-curvature="0" />
    <path
       d="m 104.63929,234.57309 h 0.52046 v -0.91818 h -0.52046 v 0.91818"
       style="fill:#29303b;fill-opacity:1;fill-rule:nonzero;stroke:none;stroke-width:0.09186479"
       id="path2487"
       inkscape:connector-curvature="0" />
    <path
       d="m 104.63929,231.26629 h 0.52046 v -4.50156 h -0.52046 v 4.50156"
       style="fill:#29303b;fill-opacity:1;fill-rule:nonzero;stroke:none;stroke-width:0.09186479"
       id="path2489"
       inkscape:connector-curvature="0" />
    <path
       d="m 104.63929,233.51088 h 1.96536 v -2.08199 h -1.96536 v 2.08199"
       style="fill:#29303b;fill-opacity:1;fill-rule:nonzero;stroke:none;stroke-width:0.09186479"
       id="path2491"
       inkscape:connector-curvature="0" />
    <path
       d="m 105.99632,233.75213 c 0,0.27926 0.24445,0.50636 0.5472,0.50636 0.30368,0 0.54815,-0.2272 0.54815,-0.50636 v -2.32324 c 0,-0.28103 -0.24445,-0.50726 -0.54815,-0.50726 -0.30272,0 -0.5472,0.2262 -0.5472,0.50726 v 2.32324"
       style="fill:#1c2026;fill-opacity:1;fill-rule:nonzero;stroke:none;stroke-width:0.09186479"
       id="path2493"
       inkscape:connector-curvature="0" />
    <path
       d="m 104.35089,233.75213 c 0,0.27926 0.24552,0.50636 0.54817,0.50636 0.30273,0 0.54909,-0.2272 0.54909,-0.50636 v -2.32324 c 0,-0.28103 -0.24634,-0.50726 -0.54909,-0.50726 -0.30273,0 -0.54817,0.2262 -0.54817,0.50726 v 2.32324"
       style="fill:#1c2026;fill-opacity:1;fill-rule:nonzero;stroke:none;stroke-width:0.09186479"
       id="path2495"
       inkscape:connector-curvature="0" />
    <path
       d="m 115.9663,228.64258 0.77066,-1.23365 -0.77066,-1.23452 h -1.53943 l -0.77067,1.23452 0.77067,1.23365 h 1.53943"
       style="fill:#1c2026;fill-opacity:1;fill-rule:nonzero;stroke:none;stroke-width:0.09186479"
       id="path2497"
       inkscape:connector-curvature="0" />
    <path
       d="m 136.67497,233.77245 c 0.75158,0 1.36277,0.56645 1.36277,1.25752 v 14.77014 c 0,0.69372 -0.61119,1.26105 -1.36277,1.26105 h -13.9312 v -17.28871 h 13.9312"
       style="fill:#141412;fill-opacity:1;fill-rule:nonzero;stroke:none;stroke-width:0.09186479"
       id="path2499"
       inkscape:connector-curvature="0" />
    <path
       d="m 113.46138,233.77245 h 13.63709 v 17.28871 h -13.63709 c -0.74774,0 -1.3618,-0.56733 -1.3618,-1.26105 v -14.77014 c 0,-0.69107 0.61406,-1.25752 1.3618,-1.25752"
       style="fill:#141412;fill-opacity:1;fill-rule:nonzero;stroke:none;stroke-width:0.09186479"
       id="path2501"
       inkscape:connector-curvature="0" />
    <path
       d="m 130.00257,251.06116 v 2.5689 h -15.08008 c -1.35605,0 -2.45524,-1.01624 -2.45524,-2.27111 v -0.29779 h 17.53532"
       style="fill:#141412;fill-opacity:1;fill-rule:nonzero;stroke:none;stroke-width:0.09186479"
       id="path2503"
       inkscape:connector-curvature="0" />
    <path
       d="m 148.4174,251.06116 v 0.29779 c 0,1.25487 -1.09822,2.27111 -2.45238,2.27111 h -15.37706 v -2.5689 h 17.82944"
       style="fill:#141412;fill-opacity:1;fill-rule:nonzero;stroke:none;stroke-width:0.09186479"
       id="path2505"
       inkscape:connector-curvature="0" />
    <path
       d="m 113.3678,249.80011 c 0,0.69372 0.61308,1.26105 1.36274,1.26105 h 27.56543 c 0.75158,0 1.36372,-0.56733 1.36372,-1.26105 v -14.77014 c 0,-0.69107 -0.61214,-1.25752 -1.36372,-1.25752 h -27.56543 c -0.74966,0 -1.36274,0.56645 -1.36274,1.25752 v 14.77014"
       style="fill:#1c2026;fill-opacity:1;fill-rule:nonzero;stroke:none;stroke-width:0.09186479"
       id="path2507"
       inkscape:connector-curvature="0" />
    <path
       d="m 114.48225,235.82795 v 13.52236 c 0,0.42154 0.37436,0.75821 0.81939,0.75821 h 26.44427 c 0.4498,0 0.81841,-0.33667 0.81841,-0.75821 v -13.52236 c 0,-0.41094 -0.36861,-0.75735 -0.81841,-0.75735 h -26.44427 c -0.44503,0 -0.81939,0.34641 -0.81939,0.75735"
       style="fill:#e4e7ee;fill-opacity:1;fill-rule:nonzero;stroke:none;stroke-width:0.09186479"
       id="path2509"
       inkscape:connector-curvature="0" />
    <path
       d="m 133.29436,249.36269 h 8.17178 v -13.58168 h -8.17178 z"
       style="fill:#d9d9d9;fill-opacity:1;fill-rule:nonzero;stroke:none;stroke-width:0.09186479"
       id="path2511"
       inkscape:connector-curvature="0" />
    <path
       d="m 134.01919,241.86803 h 6.7229 v -1.154 h -6.7229 z"
       style="fill:#29303b;fill-opacity:1;fill-rule:nonzero;stroke:none;stroke-width:0.09186479"
       id="path2513"
       inkscape:connector-curvature="0" />
    <path
       d="m 134.01919,243.98891 h 6.7229 v -1.15502 h -6.7229 z"
       style="fill:#29303b;fill-opacity:1;fill-rule:nonzero;stroke:none;stroke-width:0.09186479"
       id="path2515"
       inkscape:connector-curvature="0" />
    <path
       d="m 134.01919,246.1089 h 6.7229 v -1.15467 h -6.7229 z"
       style="fill:#29303b;fill-opacity:1;fill-rule:nonzero;stroke:none;stroke-width:0.09186479"
       id="path2517"
       inkscape:connector-curvature="0" />
    <path
       d="m 134.01919,248.22891 h 6.7229 v -1.15504 h -6.7229 z"
       style="fill:#29303b;fill-opacity:1;fill-rule:nonzero;stroke:none;stroke-width:0.09186479"
       id="path2519"
       inkscape:connector-curvature="0" />
    <path
       d="m 116.1487,249.36269 h 15.96339 V 238.92468 H 116.1487 Z"
       style="fill:#d9d9d9;fill-opacity:1;fill-rule:nonzero;stroke:none;stroke-width:0.09186479"
       id="path2521"
       inkscape:connector-curvature="0" />
    <path
       d="m 116.1487,237.86044 h 15.96339 v -2.0798 H 116.1487 Z"
       style="fill:#d9d9d9;fill-opacity:1;fill-rule:nonzero;stroke:none;stroke-width:0.09186479"
       id="path2523"
       inkscape:connector-curvature="0" />
    <path
       d="m 130.12574,248.01241 h 0.75428 v -7.08205 h -0.75428 z"
       style="fill:#ef2f3f;fill-opacity:1;fill-rule:nonzero;stroke:none;stroke-width:0.09186479"
       id="path2525"
       inkscape:connector-curvature="0" />
    <path
       d="m 124.30707,248.01241 h 0.75429 v -7.08205 h -0.75429 z"
       style="fill:#ef2f3f;fill-opacity:1;fill-rule:nonzero;stroke:none;stroke-width:0.09186479"
       id="path2527"
       inkscape:connector-curvature="0" />
    <path
       d="m 124.30707,241.72752 h 6.57292 v -0.79706 h -6.57292 z"
       style="fill:#ef2f3f;fill-opacity:1;fill-rule:nonzero;stroke:none;stroke-width:0.09186479"
       id="path2529"
       inkscape:connector-curvature="0" />
    <path
       d="m 124.30707,248.60536 h 6.57292 v -0.79603 h -6.57292 z"
       style="fill:#ef2f3f;fill-opacity:1;fill-rule:nonzero;stroke:none;stroke-width:0.09186479"
       id="path2531"
       inkscape:connector-curvature="0" />
    <path
       d="m 123.55168,248.01241 h 0.75542 v -7.08205 h -0.75542 z"
       style="fill:#c9252c;fill-opacity:1;fill-rule:nonzero;stroke:none;stroke-width:0.09186479"
       id="path2533"
       inkscape:connector-curvature="0" />
    <path
       d="m 118.49699,240.93041 h 0.75442 v 7.082 h -0.75442 v -7.082"
       style="fill:#c9252c;fill-opacity:1;fill-rule:nonzero;stroke:none;stroke-width:0.09186479"
       id="path2535"
       inkscape:connector-curvature="0" />
    <path
       d="m 118.49699,241.72752 h 5.81006 v -0.79706 h -5.81006 z"
       style="fill:#c9252c;fill-opacity:1;fill-rule:nonzero;stroke:none;stroke-width:0.09186479"
       id="path2537"
       inkscape:connector-curvature="0" />
    <path
       d="m 118.49699,248.60536 v -0.79621 h 5.81008 v 0.79621 h -5.81008"
       style="fill:#c9252c;fill-opacity:1;fill-rule:nonzero;stroke:none;stroke-width:0.09186479"
       id="path2539"
       inkscape:connector-curvature="0" />
    <path
       d="m 134.71823,236.66835 c 0.39536,-0.12901 0.95116,-0.1255 1.47736,-0.11673 0.49562,0.008 0.85184,0.27394 0.85184,0.77148 v 0.16157 c 0,0.30488 -0.10232,0.51873 -0.37817,0.60976 0.28459,0.0839 0.37817,0.32432 0.37817,0.64158 v 0.12099 c 0,0.50547 -0.33423,0.7847 -0.88241,0.7847 -0.51474,0 -1.02374,0.0125 -1.421,-0.11673 l 0.003,-0.61329 h 0.98457 c 0.35048,0 0.44025,-0.005 0.44025,-0.20065 v -0.0371 c 0,-0.19163 -0.12696,-0.20065 -0.41445,-0.21217 l -0.73439,-0.0301 v -0.65924 l 0.73439,-0.0416 c 0.31226,-0.0125 0.424,-0.0125 0.424,-0.20416 v -0.0371 c 0,-0.21292 -0.18814,-0.21292 -0.424,-0.21292 h -1.03998 v -0.60886"
       style="fill:#ef2f3f;fill-opacity:1;fill-rule:nonzero;stroke:none;stroke-width:0.09186479"
       id="path2541"
       inkscape:connector-curvature="0" />
    <path
       d="m 138.89243,238.92884 c 0.255,0 0.33711,-0.24649 0.33711,-0.83421 0,-0.75555 -0.12615,-0.85189 -0.33711,-0.85189 h -0.58252 v 1.6861 h 0.58252 m -1.45727,-2.36918 h 1.54609 c 0.89768,0 1.12306,0.67602 1.12306,1.53938 0,1.06752 -0.36861,1.51468 -1.12306,1.51468 h -1.54609 v -3.05406"
       style="fill:#ef2f3f;fill-opacity:1;fill-rule:nonzero;stroke:none;stroke-width:0.09186479"
       id="path2543"
       inkscape:connector-curvature="0" />
    <path
       d="m 121.2349,251.06116 v 0.29779 c 0,1.25487 1.09824,2.27111 2.45527,2.27111 h 30.45518 c 1.35606,0 2.45525,-1.01624 2.45525,-2.27111 v -0.29779 h -13.48334 c 0,0.31017 -0.13644,0.59386 -0.35619,0.79799 -0.22062,0.20315 -0.52619,0.32872 -0.86235,0.32872 h -6.25797 c -0.67326,0 -1.21762,-0.5037 -1.21762,-1.12671 H 121.2349"
       style="fill:#29303b;fill-opacity:1;fill-rule:nonzero;stroke:none;stroke-width:0.09186479"
       id="path2545"
       inkscape:connector-curvature="0" />
    <path
       d="m 142.56432,243.12818 -1.09821,-1.01624 v -3.60021 l 1.09821,1.01715 v 3.5993"
       style="fill:#f1f2f6;fill-opacity:1;fill-rule:nonzero;stroke:none;stroke-width:0.09186479"
       id="path2547"
       inkscape:connector-curvature="0" />
    <path
       d="m 141.46611,242.11194 -0.72389,-0.66986 v -0.72817 h -0.78688 l -1.18895,-1.10019 h 0.21494 c 0.75442,0 1.12304,-0.44716 1.12304,-1.51468 0,-0.39235 -0.0457,-0.74583 -0.18137,-1.01446 l 1.54324,1.42715 v 3.60021"
       style="fill:#eae9ea;fill-opacity:1;fill-rule:nonzero;stroke:none;stroke-width:0.09186479"
       id="path2549"
       inkscape:connector-curvature="0" />
    <path
       d="m 140.74222,241.44208 -0.78688,-0.72817 h 0.78688 v 0.72817"
       style="fill:#7a8089;fill-opacity:1;fill-rule:nonzero;stroke:none;stroke-width:0.09186479"
       id="path2551"
       inkscape:connector-curvature="0" />
    <path
       d="m 138.89243,238.92884 h -0.58252 v -1.6861 h 0.58252 c 0.21115,0 0.33711,0.0964 0.33711,0.85189 0,0.58767 -0.082,0.83421 -0.33711,0.83421"
       style="fill:#eae9ea;fill-opacity:1;fill-rule:nonzero;stroke:none;stroke-width:0.09186479"
       id="path2553"
       inkscape:connector-curvature="0" />
    <path
       d="m 138.51426,235.78111 h -3.88962 l -0.76684,-0.71051 h 3.88961 l 0.76685,0.71051"
       style="fill:#f1f2f6;fill-opacity:1;fill-rule:nonzero;stroke:none;stroke-width:0.09186479"
       id="path2555"
       inkscape:connector-curvature="0" />
    <path
       d="m 137.43516,238.38183 -0.50329,-0.46658 c 0.0812,-0.10972 0.11559,-0.25451 0.11559,-0.43038 v -0.16157 c 0,-0.49754 -0.35619,-0.76352 -0.85185,-0.77148 -0.11748,-0.002 -0.23686,-0.003 -0.35524,-0.003 -0.12804,0 -0.255,0.002 -0.37817,0.008 l -0.83753,-0.77412 h 3.88964 l 0.9225,0.85277 c -0.12804,-0.0486 -0.27885,-0.0741 -0.45551,-0.0741 h -1.54611 v 1.82219"
       style="fill:#eae9ea;fill-opacity:1;fill-rule:nonzero;stroke:none;stroke-width:0.09186479"
       id="path2557"
       inkscape:connector-curvature="0" />
    <path
       d="m 136.93187,237.91525 -1.4697,-1.36003 c 0.12317,-0.005 0.25013,-0.008 0.37817,-0.008 0.1183,0 0.23768,0.002 0.35525,0.002 0.49562,0.008 0.85184,0.27395 0.85184,0.77149 v 0.16157 c 0,0.17585 -0.0344,0.32078 -0.11559,0.43038"
       style="fill:#f47185;fill-opacity:1;fill-rule:nonzero;stroke:none;stroke-width:0.09186479"
       id="path2559"
       inkscape:connector-curvature="0" />
    <path
       d="m 138.98125,239.61372 h -0.21494 l -1.33123,-1.23189 v -1.82217 h 1.54611 c 0.17677,0 0.32755,0.0255 0.45552,0.0742 l 0.4861,0.45069 c 0.13562,0.26863 0.18137,0.62211 0.18137,1.01447 0,1.06752 -0.36865,1.51468 -1.12307,1.51468 m -0.67134,-2.37099 v 1.6861 h 0.58253 c 0.255,0 0.3371,-0.24649 0.3371,-0.8342 0,-0.75555 -0.12615,-0.8519 -0.3371,-0.8519 h -0.58253"
       style="fill:#f47185;fill-opacity:1;fill-rule:nonzero;stroke:none;stroke-width:0.09186479"
       id="path2561"
       inkscape:connector-curvature="0" />
    <path
       d="m 141.74591,250.10852 h -9.94894 l -0.80602,-0.74583 h 1.12114 v -10.43826 h -12.40133 l -1.14978,-1.06399 h 13.55111 v -0.0574 l 1.18227,1.09402 v 10.46566 h 8.17175 v -2.90384 l 1.09821,1.01627 v 1.8752 c 0,0.42151 -0.36861,0.7582 -0.81841,0.7582 m -11.81878,-14.3274 h -13.61322 l -0.7678,-0.71051 h 13.6132 l 0.76782,0.71051"
       style="fill:#f1f2f6;fill-opacity:1;fill-rule:nonzero;stroke:none;stroke-width:0.09186479"
       id="path2563"
       inkscape:connector-curvature="0" />
    <path
       d="m 141.46611,249.36269 h -8.17175 v -10.46566 l 1.96343,1.81688 h -1.2386 v 1.15412 h 2.48676 l 1.04285,0.96589 h -3.52961 v 1.15499 h 4.77776 l 1.04283,0.965 h -5.82059 v 1.15499 h 6.72303 v -0.31989 l 0.72389,0.66983 v 2.90385 m -7.44692,-2.28877 v 1.15499 h 6.72303 v -1.15499 h -6.72303"
       style="fill:#eae9ea;fill-opacity:1;fill-rule:nonzero;stroke:none;stroke-width:0.09186479"
       id="path2565"
       inkscape:connector-curvature="0" />
    <path
       d="m 136.50595,241.86803 h -2.48676 v -1.15412 h 1.2386 l 1.24816,1.15412"
       style="fill:#7a8089;fill-opacity:1;fill-rule:nonzero;stroke:none;stroke-width:0.09186479"
       id="path2567"
       inkscape:connector-curvature="0" />
    <path
       d="m 138.79695,243.98891 h -4.77776 v -1.15499 h 3.52961 l 1.24815,1.15499"
       style="fill:#7a8089;fill-opacity:1;fill-rule:nonzero;stroke:none;stroke-width:0.09186479"
       id="path2569"
       inkscape:connector-curvature="0" />
    <path
       d="m 140.74222,246.1089 h -6.72303 v -1.15499 h 5.82059 l 0.90244,0.8351 v 0.31989"
       style="fill:#7a8089;fill-opacity:1;fill-rule:nonzero;stroke:none;stroke-width:0.09186479"
       id="path2571"
       inkscape:connector-curvature="0" />
    <path
       d="m 134.01919,248.22891 h 6.7229 v -1.15504 h -6.7229 z"
       style="fill:#7a8089;fill-opacity:1;fill-rule:nonzero;stroke:none;stroke-width:0.09186479"
       id="path2573"
       inkscape:connector-curvature="0" />
    <path
       d="m 132.11209,249.36269 h -1.12114 l -0.8184,-0.75733 h 0.70763 v -0.79621 -6.08163 -0.79711 h -0.75444 -5.06425 -0.75442 -0.75539 -1.67311 l -2.16781,-2.00598 h 12.40133 v 10.43826 m -1.98635,-1.55354 h -0.81362 l -4.25063,-3.93336 v -2.14827 h 5.06425 v 6.08163 m -6.57406,-5.33049 -0.81173,-0.75114 h 0.81173 v 0.75114"
       style="fill:#eae9ea;fill-opacity:1;fill-rule:nonzero;stroke:none;stroke-width:0.09186479"
       id="path2575"
       inkscape:connector-curvature="0" />
    <path
       d="m 132.11209,237.86044 h -13.55111 l -2.24707,-2.07933 h 13.61322 l 2.18496,2.02189 v 0.0574"
       style="fill:#eae9ea;fill-opacity:1;fill-rule:nonzero;stroke:none;stroke-width:0.09186479"
       id="path2577"
       inkscape:connector-curvature="0" />
    <path
       d="m 130.12574,247.80915 h 0.75428 v -6.08165 h -0.75428 z"
       style="fill:#f47185;fill-opacity:1;fill-rule:nonzero;stroke:none;stroke-width:0.09186479"
       id="path2579"
       inkscape:connector-curvature="0" />
    <path
       d="m 125.06149,243.87579 -0.75442,-0.69811 v -1.45016 h 0.75442 v 2.14827"
       style="fill:#f47185;fill-opacity:1;fill-rule:nonzero;stroke:none;stroke-width:0.09186479"
       id="path2581"
       inkscape:connector-curvature="0" />
    <path
       d="m 130.88018,241.72752 v 0 h -6.57311 v -0.79711 h 0.75442 5.06425 0.75444 v 0.79711"
       style="fill:#f47185;fill-opacity:1;fill-rule:nonzero;stroke:none;stroke-width:0.09186479"
       id="path2583"
       inkscape:connector-curvature="0" />
    <path
       d="m 130.88018,248.60536 h -0.70763 l -0.86043,-0.79621 h 1.56806 v 0.79621"
       style="fill:#f47185;fill-opacity:1;fill-rule:nonzero;stroke:none;stroke-width:0.09186479"
       id="path2585"
       inkscape:connector-curvature="0" />
    <path
       d="m 124.30707,243.17768 -0.75539,-0.69902 v -0.75114 h 0.75539 v 1.45016"
       style="fill:#dd6979;fill-opacity:1;fill-rule:nonzero;stroke:none;stroke-width:0.09186479"
       id="path2587"
       inkscape:connector-curvature="0" />
    <path
       d="m 124.30707,241.72752 v 0 h -1.56712 l -0.86138,-0.79711 h 1.67311 0.75539 v 0.79711"
       style="fill:#dd6979;fill-opacity:1;fill-rule:nonzero;stroke:none;stroke-width:0.09186479"
       id="path2589"
       inkscape:connector-curvature="0" />
    <path
       d="m 169.12895,296.04148 h 3.20014 l 0.008,-42.41229 -3.20203,-0.003 -0.005,42.4158"
       style="fill:#cdccca;fill-opacity:1;fill-rule:nonzero;stroke:none;stroke-width:0.09186479"
       id="path2591"
       inkscape:connector-curvature="0" />
    <path
       d="m 171.39132,296.04148 3.20298,-0.003 0.003,-42.41226 h -3.20013 l -0.005,42.41579"
       style="fill:#f9fafa;fill-opacity:1;fill-rule:nonzero;stroke:none;stroke-width:0.09186479"
       id="path2593"
       inkscape:connector-curvature="0" />
    <path
       d="m 159.77496,296.03794 11.60488,0.003 v -2.39396 h -11.60488 v 2.39043"
       style="fill:#cdccca;fill-opacity:1;fill-rule:nonzero;stroke:none;stroke-width:0.09186479"
       id="path2595"
       inkscape:connector-curvature="0" />
    <path
       d="m 167.17031,296.03794 14.36764,0.003 v -2.39396 h -14.36764 v 2.39043"
       style="fill:#f9fafa;fill-opacity:1;fill-rule:nonzero;stroke:none;stroke-width:0.09186479"
       id="path2597"
       inkscape:connector-curvature="0" />
    <path
       d="m 152.68137,292.16821 2.67107,0.0629 0.0544,-2.08023 -2.67107,-0.0566 -0.0544,2.07404"
       style="fill:#cc9262;fill-opacity:1;fill-rule:nonzero;stroke:none;stroke-width:0.09186479"
       id="path2599"
       inkscape:connector-curvature="0" />
    <path
       d="m 152.38914,294.43844 3.14475,0.0671 0.0744,-3.01165 -3.14094,-0.0706 -0.0782,3.01519"
       style="fill:#e7d9ce;fill-opacity:1;fill-rule:nonzero;stroke:none;stroke-width:0.09186479"
       id="path2601"
       inkscape:connector-curvature="0" />
    <path
       d="m 152.22298,291.82976 c 0.63792,0.005 1.15458,0.48338 1.15458,1.07899 v 0.97915 c 0,0.59207 -0.52048,1.0728 -1.15839,1.0728 -0.63983,0 -1.1565,-0.47985 -1.1565,-1.0728 v -0.98268 c 0,-0.59208 0.52238,-1.07546 1.16031,-1.07546"
       style="fill:#ef2f3f;fill-opacity:1;fill-rule:nonzero;stroke:none;stroke-width:0.09186479"
       id="path2603"
       inkscape:connector-curvature="0" />
    <path
       d="m 156.0534,295.42906 c -0.003,0.29869 -0.26258,0.53995 -0.5854,0.53995 -1.09631,0 -3.43887,0 -3.43887,0 h -5.39469 v -0.71139 l 9.41896,0.002 v 0.16959"
       style="fill:#3b1d1e;fill-opacity:1;fill-rule:nonzero;stroke:none;stroke-width:0.09186479"
       id="path2605"
       inkscape:connector-curvature="0" />
    <path
       d="m 146.63444,295.26824 9.41896,0.008 v -1.93531 c 0,-0.2598 -0.20628,-0.48073 -0.47844,-0.52758 v 0.0601 c -0.002,0.55939 -0.49087,1.01715 -1.10108,1.01715 -0.60451,-0.002 -1.09632,-0.45776 -1.09632,-1.01715 l 0.002,-0.0741 -2.31678,0.13778 v 0.0504 c 0,0.13426 -0.0276,0.26069 -0.1118,0.36054 l -0.082,0.0779 c -0.10504,0.0919 -0.26367,0.15556 -0.48513,0.18813 l -0.11938,0.0175 c -0.10611,0.0125 -0.21954,0.0175 -0.34666,0.0175 l -1.14215,-0.003 c -1.18226,0.003 -2.14107,0.52848 -2.14107,1.62425"
       style="fill:#ef2f3f;fill-opacity:1;fill-rule:nonzero;stroke:none;stroke-width:0.09186479"
       id="path2607"
       inkscape:connector-curvature="0" />
    <path
       d="m 146.63444,295.26824 2.15062,0.002 c 0.21305,-0.28985 0.33616,-0.64333 0.33616,-1.02687 0,-0.20666 -0.0352,-0.41091 -0.10693,-0.5956 l -0.23876,-0.003 c -1.18226,0.003 -2.14106,0.52845 -2.14106,1.62423"
       style="fill:#e7d9ce;fill-opacity:1;fill-rule:nonzero;stroke:none;stroke-width:0.09186479"
       id="path2609"
       inkscape:connector-curvature="0" />
    <path
       d="m 151.10756,294.17775 0.0536,0.0549 h 0.003 l 0.0601,-0.0479 c 0.005,-0.0741 -0.0162,-0.52316 -0.27406,-0.83774 l -0.082,0.0777 c 0.21954,0.28809 0.24444,0.69017 0.23875,0.75292"
       style="fill:#e7d9ce;fill-opacity:1;fill-rule:nonzero;stroke:none;stroke-width:0.09186479"
       id="path2611"
       inkscape:connector-curvature="0" />
    <path
       d="m 150.3837,294.17244 0.0544,0.0584 0.002,0.002 0.0612,-0.0514 c 0,-0.0539 -0.0135,-0.31107 -0.11749,-0.56823 l -0.11938,0.0175 c 0.10991,0.24649 0.12128,0.50017 0.11938,0.5417"
       style="fill:#e7d9ce;fill-opacity:1;fill-rule:nonzero;stroke:none;stroke-width:0.09186479"
       id="path2613"
       inkscape:connector-curvature="0" />
    <path
       d="m 149.75532,294.17244 0.0536,0.0601 h 0.003 l 0.0582,-0.0478 c 0.003,-0.0539 -0.003,-0.29075 -0.10422,-0.53729 h -0.12317 c 0.10016,0.24048 0.11559,0.48339 0.1118,0.52492"
       style="fill:#e7d9ce;fill-opacity:1;fill-rule:nonzero;stroke:none;stroke-width:0.09186479"
       id="path2615"
       inkscape:connector-curvature="0" />
    <path
       d="m 140.13774,292.16821 2.67108,0.0609 0.0544,-2.07846 -2.673,-0.0636 -0.0525,2.08111"
       style="fill:#cc9262;fill-opacity:1;fill-rule:nonzero;stroke:none;stroke-width:0.09186479"
       id="path2617"
       inkscape:connector-curvature="0" />
    <path
       d="m 139.84742,294.43491 3.14282,0.0706 0.0745,-3.01341 -3.14283,-0.0689 -0.0744,3.01166"
       style="fill:#e7d9ce;fill-opacity:1;fill-rule:nonzero;stroke:none;stroke-width:0.09186479"
       id="path2619"
       inkscape:connector-curvature="0" />
    <path
       d="m 139.67744,291.83505 c 0.63983,-0.005 1.15647,0.47809 1.15647,1.07017 v 0.98268 c 0,0.59295 -0.51856,1.0728 -1.15839,1.0728 -0.64173,0 -1.15839,-0.48073 -1.15839,-1.0728 v -0.99064 c 0,-0.58765 0.51856,-1.0675 1.16031,-1.06221"
       style="fill:#ef2f3f;fill-opacity:1;fill-rule:nonzero;stroke:none;stroke-width:0.09186479"
       id="path2621"
       inkscape:connector-curvature="0" />
    <path
       d="m 143.5088,295.42731 c 0,0.30044 -0.26177,0.5417 -0.58444,0.5417 -1.09251,0 -3.43887,0 -3.43887,0 l -5.39467,-0.002 v -0.71758 l 9.41798,0.01 v 0.16784"
       style="fill:#3b1d1e;fill-opacity:1;fill-rule:nonzero;stroke:none;stroke-width:0.09186479"
       id="path2623"
       inkscape:connector-curvature="0" />
    <path
       d="m 134.09271,295.26824 9.41609,0.008 v -1.93531 c 0.002,-0.26511 -0.20546,-0.48602 -0.47939,-0.53111 v 0.0619 c 0,0.55939 -0.49086,1.01715 -1.09726,1.01715 -0.60548,0 -1.09824,-0.45776 -1.09824,-1.01537 v -0.0741 l -2.31678,0.13778 v 0.0539 c 0,0.13075 -0.0295,0.24999 -0.10991,0.35876 l -0.082,0.0759 c -0.10611,0.0884 -0.26068,0.15205 -0.48512,0.18837 l -0.12128,0.02 c -0.10422,0.008 -0.21575,0.0125 -0.34666,0.015 l -1.13546,-0.002 c -1.18514,0 -2.14394,0.53376 -2.14394,1.62422"
       style="fill:#ef2f3f;fill-opacity:1;fill-rule:nonzero;stroke:none;stroke-width:0.09186479"
       id="path2625"
       inkscape:connector-curvature="0" />
    <path
       d="m 134.09271,295.26824 2.14681,0.002 c 0.21683,-0.29338 0.33805,-0.64333 0.33805,-1.02687 0,-0.20666 -0.0374,-0.41091 -0.1099,-0.59914 h -0.23118 c -1.18514,0 -2.14394,0.53376 -2.14394,1.62423"
       style="fill:#e7d9ce;fill-opacity:1;fill-rule:nonzero;stroke:none;stroke-width:0.09186479"
       id="path2627"
       inkscape:connector-curvature="0" />
    <path
       d="m 138.56201,294.17244 0.0563,0.0584 0.002,0.002 0.0593,-0.0514 c 0.005,-0.0706 -0.019,-0.5267 -0.27216,-0.83245 l -0.082,0.0759 c 0.22333,0.28454 0.24445,0.69548 0.23687,0.74761"
       style="fill:#e7d9ce;fill-opacity:1;fill-rule:nonzero;stroke:none;stroke-width:0.09186479"
       id="path2629"
       inkscape:connector-curvature="0" />
    <path
       d="m 137.84005,294.17244 0.0506,0.0531 0.008,0.005 0.0555,-0.0496 c 0.003,-0.0539 -0.005,-0.31106 -0.1137,-0.5682 l -0.12127,0.02 c 0.11071,0.24474 0.12127,0.49486 0.12127,0.53995"
       style="fill:#e7d9ce;fill-opacity:1;fill-rule:nonzero;stroke:none;stroke-width:0.09186479"
       id="path2631"
       inkscape:connector-curvature="0" />
    <path
       d="m 137.21169,294.17244 0.0506,0.0584 0.008,0.002 0.0574,-0.0514 c 0.005,-0.0503 -0.005,-0.28722 -0.10395,-0.53376 h -0.12507 c 0.10395,0.24048 0.11749,0.48339 0.1137,0.52492"
       style="fill:#e7d9ce;fill-opacity:1;fill-rule:nonzero;stroke:none;stroke-width:0.09186479"
       id="path2633"
       inkscape:connector-curvature="0" />
    <path
       d="m 158.29186,252.55373 c 0,1.36177 -1.59671,0.16257 -3.62221,0.17134 -2.02743,-0.01 -3.7187,1.19387 -3.7187,-0.17134 0,-1.36532 1.64447,-2.46994 3.67189,-2.47525 2.02645,0.005 3.66902,1.10993 3.66902,2.47525"
       style="fill:#ecab73;fill-opacity:1;fill-rule:nonzero;stroke:none;stroke-width:0.09186479"
       id="path2635"
       inkscape:connector-curvature="0" />
    <path
       d="m 181.05854,230.17846 c -1.12496,-0.0892 -2.11335,0.68308 -2.2098,1.72585 -0.59306,6.40861 -5.97053,13.51267 -8.00749,15.25796 -3.85145,3.29797 -8.62442,3.40666 -11.95444,2.91268 -0.86329,-0.12725 -1.67502,-0.30135 -2.41894,-0.49488 v 3.89358 c 1.5442,0.34201 3.3873,0.60623 5.37366,0.60623 3.77692,0 8.05619,-0.94821 11.7787,-4.14102 1.26439,-1.07987 3.3873,-3.57633 5.28197,-6.69843 1.61582,-2.66968 3.62606,-6.75059 4.02142,-11.01445 0.0956,-1.04275 -0.73628,-1.9627 -1.86508,-2.04752"
       style="fill:#f9fafa;fill-opacity:1;fill-rule:nonzero;stroke:none;stroke-width:0.09186479"
       id="path2637"
       inkscape:connector-curvature="0" />
    <path
       d="m 172.21737,263.26327 c -4.752,-0.0398 -9.65769,-0.0822 -14.49563,0.11748 l -0.38486,0.015 -0.36575,0.0892 c -2.81433,0.69546 -5.17502,2.83403 -6.16246,5.5735 l -0.15484,0.43301 -0.0244,0.45951 c -0.21494,5.00529 -0.16811,10.09009 -0.12507,15.00701 0.0189,2.0157 0.0374,4.07031 0.0374,6.12579 h 7.00952 c 0,-2.07492 -0.0162,-4.14631 -0.0352,-6.18236 -0.0411,-4.65179 -0.0858,-9.46176 0.0983,-14.13124 0.2282,-0.41004 0.573,-0.75557 0.92729,-0.92789 4.49125,-0.17134 9.12292,-0.1265 13.61035,-0.0849 0.87475,0.002 1.75716,0.015 2.65007,0.0175 v -6.48545 c -0.86904,-0.01 -1.73044,-0.015 -2.58513,-0.0265"
       style="fill:#1c1c1f;fill-opacity:1;fill-rule:nonzero;stroke:none;stroke-width:0.09186479"
       id="path2639"
       inkscape:connector-curvature="0" />
    <path
       d="m 169.88053,232.24278 c 0,1.2301 1.07433,2.22337 2.40273,2.22337 1.32167,-0.003 2.39985,-0.98974 2.39985,-2.21808 l 0.002,-7.30113 c -0.002,-1.22746 -1.07433,-2.21986 -2.40175,-2.22427 -1.32839,0.005 -2.39891,0.99328 -2.39891,2.22427 l -0.003,7.29584"
       style="fill:#ecab73;fill-opacity:1;fill-rule:nonzero;stroke:none;stroke-width:0.09186479"
       id="path2641"
       inkscape:connector-curvature="0" />
    <path
       d="m 165.1467,223.13802 c 0.003,3.01164 2.63956,5.45597 5.89603,5.45597 3.25647,0 5.89796,-2.44433 5.89796,-5.45597 v -5.72549 c 0.002,-3.01519 -2.63767,-5.45862 -5.89414,-5.45331 -3.25647,-0.005 -5.89603,2.4399 -5.89603,5.45331 l -0.003,5.72549"
       style="fill:#ecab73;fill-opacity:1;fill-rule:nonzero;stroke:none;stroke-width:0.09186479"
       id="path2643"
       inkscape:connector-curvature="0" />
    <path
       d="m 168.31151,210.96064 c 1.15457,-0.22971 2.6214,-0.39591 4.88948,-0.28544 5.7671,0.27041 7.7439,4.47153 7.7439,5.83153 l -1.73328,-1.21243 c 0,1.35559 -4.539,1.20536 -6.00775,1.20536 h -4.89235 v -5.53902"
       style="fill:#5a2926;fill-opacity:1;fill-rule:nonzero;stroke:none;stroke-width:0.09186479"
       id="path2645"
       inkscape:connector-curvature="0" />
    <path
       d="m 176.21107,221.86637 c 0.59879,0 1.08773,-0.45422 1.08773,-1.00652 v -2.58749 c 0,-0.55585 -0.48894,-1.00477 -1.09155,-1.00211 -0.59877,0 -1.08389,0.44626 -1.08389,1.00211 l -0.002,2.58749 c 0.002,0.5523 0.48702,1.00652 1.0896,1.00652"
       style="fill:#262221;fill-opacity:1;fill-rule:nonzero;stroke:none;stroke-width:0.09186479"
       id="path2647"
       inkscape:connector-curvature="0" />
    <path
       d="m 175.12336,217.88795 c 0,-0.75643 -0.78691,-1.45722 -1.75334,-1.45369 h -4.55048 v -2.95154 h 8.76385 v 5.38525 l -2.46003,-0.26069 c 0,0 -0.002,-0.12099 0,-0.71933"
       style="fill:#262221;fill-opacity:1;fill-rule:nonzero;stroke:none;stroke-width:0.09186479"
       id="path2649"
       inkscape:connector-curvature="0" />
    <path
       d="m 169.70481,219.87627 c 0,-4.26384 2.63383,-8.32974 5.88554,-8.32974 3.25073,0 5.88648,4.0659 5.88455,8.32974 0.002,4.26475 -2.63382,7.72089 -5.88455,7.72089 -3.25171,0 -5.88746,-3.45968 -5.88554,-7.72089"
       style="fill:#5a2926;fill-opacity:1;fill-rule:nonzero;stroke:none;stroke-width:0.09186479"
       id="path2651"
       inkscape:connector-curvature="0" />
    <path
       d="m 169.55966,223.7787 c 0.49087,0.42948 1.47926,0.2049 2.21078,-0.5046 0.72672,-0.71049 0.92057,-1.63395 0.42879,-2.07049 -0.49279,-0.43214 -1.48502,-0.20591 -2.2108,0.50282 -0.72862,0.71402 -0.92155,1.63838 -0.42877,2.07227"
       style="fill:#ecab73;fill-opacity:1;fill-rule:nonzero;stroke:none;stroke-width:0.09186479"
       id="path2653"
       inkscape:connector-curvature="0" />
    <path
       d="m 171.29771,261.30323 h 6.44228 c 2.02838,0.005 3.66713,1.52175 3.66713,3.39607 v 1.51553 c 0,1.87079 -1.64257,3.38989 -3.66713,3.39342 h -6.44228 v -8.30502"
       style="fill:#262630;fill-opacity:1;fill-rule:nonzero;stroke:none;stroke-width:0.09186479"
       id="path2655"
       inkscape:connector-curvature="0" />
    <path
       d="m 171.25188,263.28271 c -3.04064,0.0363 -6.17586,0.008 -9.20313,-0.02 -4.74909,-0.0398 -9.65961,-0.0822 -14.49847,0.11748 l -0.38965,0.015 -0.3753,0.1 c -2.18595,0.54701 -3.99467,1.6967 -5.22182,3.31917 l -0.10125,0.14303 c -0.67326,0.99596 -1.47733,2.36127 -1.68076,4.0615 l -0.008,0.0874 c -0.39344,4.37253 -0.75729,8.7716 -1.10682,13.0275 -0.18814,2.28083 -0.38199,4.61379 -0.57776,6.9494 h 7.03152 c 0.18327,-2.17301 0.36385,-4.33719 0.53383,-6.45542 0.35237,-4.22497 0.71622,-8.59222 1.10013,-12.91881 0.0449,-0.29516 0.23118,-0.67336 0.60069,-1.23099 0.12127,-0.15281 0.3877,-0.43301 0.96833,-0.63627 4.50465,-0.17134 9.1525,-0.13176 13.65716,-0.0884 3.0712,0.0225 6.24459,0.0539 9.36451,0.0175 l -0.0926,-6.48814"
       style="fill:#262630;fill-opacity:1;fill-rule:nonzero;stroke:none;stroke-width:0.09186479"
       id="path2657"
       inkscape:connector-curvature="0" />
    <path
       d="m 163.18421,264.30782 c 0,0.7158 0.59877,1.30522 1.33411,1.30346 l 16.44187,0.002 c 0.73818,0 1.33505,-0.58413 1.33505,-1.30168 l 0.002,-32.76583 c 0,-0.72374 -0.59495,-1.31053 -1.33411,-1.31053 l -16.50107,-0.0441 c -0.75729,0.20316 -1.27011,0.63011 -1.27395,1.35297 l -0.003,32.76405"
       style="fill:#d8d8d9;fill-opacity:1;fill-rule:nonzero;stroke:none;stroke-width:0.09186479"
       id="path2659"
       inkscape:connector-curvature="0" />
    <path
       d="m 163.21954,213.75223 c 0.019,-1.61538 1.45159,-2.91353 3.20301,-2.90118 l 6.72974,0.0664 c 1.75142,0.02 3.15428,1.34499 3.13901,2.96216 -0.0216,1.61984 -1.4554,2.92062 -3.203,2.90296 l -6.73451,-0.0699 c -1.74952,-0.0125 -3.15428,-1.33793 -3.13425,-2.9604"
       style="fill:#5a2926;fill-opacity:1;fill-rule:nonzero;stroke:none;stroke-width:0.09186479"
       id="path2661"
       inkscape:connector-curvature="0" />
    <path
       d="m 155.97701,272.46172 v 1.53056 l 20.3945,0.003 0.002,-1.52791 -20.39643,-0.005"
       style="fill:#cdccca;fill-opacity:1;fill-rule:nonzero;stroke:none;stroke-width:0.09186479"
       id="path2663"
       inkscape:connector-curvature="0" />
    <path
       d="m 156.83362,269.60472 h 18.41483 v 2.86318 l -18.41483,-0.005 v -2.85787"
       style="fill:#e68f14;fill-opacity:1;fill-rule:nonzero;stroke:none;stroke-width:0.09186479"
       id="path2665"
       inkscape:connector-curvature="0" />
    <path
       d="m 165.71396,269.648 h 18.41293 v 2.86497 h -18.41486 l 0.002,-2.86497"
       style="fill:#fad406;fill-opacity:1;fill-rule:nonzero;stroke:none;stroke-width:0.09186479"
       id="path2667"
       inkscape:connector-curvature="0" />
    <path
       d="m 172.27752,272.84788 h 3.35484 l 0.003,-27.28775 -3.35866,-0.005 v 27.29306"
       style="fill:#cdccca;fill-opacity:1;fill-rule:nonzero;stroke:none;stroke-width:0.09186479"
       id="path2669"
       inkscape:connector-curvature="0" />
    <path
       d="m 173.243,272.84788 h 3.3539 l 0.002,-27.29306 h -3.35198 l -0.003,27.29306"
       style="fill:#f9fafa;fill-opacity:1;fill-rule:nonzero;stroke:none;stroke-width:0.09186479"
       id="path2671"
       inkscape:connector-curvature="0" />
    <path
       d="m 166.03864,272.46172 v 1.53409 h 18.55619 l -0.003,-1.52791 -18.55237,-0.005"
       style="fill:#f9fafa;fill-opacity:1;fill-rule:nonzero;stroke:none;stroke-width:0.09186479"
       id="path2673"
       inkscape:connector-curvature="0" />
    <path
       d="m 183.29129,262.23819 c 0,2.77218 -2.4285,5.01588 -5.41854,5.0141 h -7.83559 c -2.99387,0 -5.41473,-2.24723 -5.41473,-5.01233 l 0.002,-23.56119 c 0,-2.76687 2.4266,-5.00883 5.41662,-5.00883 l 7.83751,0.002 c 2.99194,0 5.41281,2.24901 5.41281,5.01411 v 23.55235"
       style="fill:#e68f14;fill-opacity:1;fill-rule:nonzero;stroke:none;stroke-width:0.09186479"
       id="path2675"
       inkscape:connector-curvature="0" />
    <path
       d="m 184.65116,262.23996 c 0,2.77041 -2.42468,5.01233 -5.41472,5.01233 h -7.83941 c -2.98623,0 -5.4128,-2.24192 -5.4128,-5.01233 l 0.003,-23.56119 c 0,-2.76687 2.42276,-5.00883 5.41473,-5.00705 h 7.83748 c 2.98813,0 5.41284,2.24549 5.41284,5.01058 l -0.002,23.55766"
       style="fill:#fad406;fill-opacity:1;fill-rule:nonzero;stroke:none;stroke-width:0.09186479"
       id="path2677"
       inkscape:connector-curvature="0" />
    <path
       d="m 139.30117,251.83971 c 0,1.35824 -1.59482,0.17059 -3.62414,0.16708 -2.02358,0.002 -3.7187,1.19299 -3.7187,-0.16708 0,-1.36534 1.64257,-2.46643 3.67,-2.47171 2.02742,0 3.67284,1.10637 3.67284,2.47171"
       style="fill:#ecab73;fill-opacity:1;fill-rule:nonzero;stroke:none;stroke-width:0.09186479"
       id="path2679"
       inkscape:connector-curvature="0" />
    <path
       d="m 164.41136,230.37375 c -1.12401,-0.0867 -2.11621,0.68576 -2.20982,1.73116 -0.59495,6.41126 -5.97051,13.51088 -8.00749,15.25886 -3.84568,3.29885 -8.62057,3.40401 -11.95154,2.90647 -1.49644,-0.21743 -2.82102,-0.56114 -3.93547,-0.93849 -0.1164,1.1718 -0.7277,2.4019 -1.19564,3.44645 l -0.0698,0.14854 c 1.80204,0.58679 4.77107,1.34941 8.15266,1.345 3.77598,0.005 8.05811,-0.9429 11.78059,-4.13394 1.26345,-1.08255 3.38541,-3.57457 5.27914,-6.69667 1.61869,-2.67056 3.62795,-6.75237 4.02142,-11.01533 0.0983,-1.04453 -0.73916,-1.96005 -1.86414,-2.05195"
       style="fill:#f9fafa;fill-opacity:1;fill-rule:nonzero;stroke:none;stroke-width:0.09186479"
       id="path2681"
       inkscape:connector-curvature="0" />
    <path
       d="m 82.765035,294.52395 c 0,0.83619 -0.588646,1.51338 -1.31208,1.51338 H 54.283074 c -0.723129,0 -1.311853,-0.67719 -1.311853,-1.51338 0,-0.83442 0.588724,-1.51161 1.311853,-1.51161 h 27.169881 c 0.723434,0 1.31208,0.67719 1.31208,1.51161"
       style="fill:#1c2026;fill-opacity:1;fill-rule:nonzero;stroke:none;stroke-width:0.08178386"
       id="path965"
       inkscape:connector-curvature="0" />
    <path
       d="m 82.765035,284.88862 c 0,0.83706 -0.588646,1.51249 -1.31208,1.51249 H 54.283074 c -0.723129,0 -1.311853,-0.67543 -1.311853,-1.51249 0,-0.83529 0.588724,-1.51425 1.311853,-1.51425 h 27.169881 c 0.723434,0 1.31208,0.67719 1.31208,1.51425"
       style="fill:#1c2026;fill-opacity:1;fill-rule:nonzero;stroke:none;stroke-width:0.08178386"
       id="path967"
       inkscape:connector-curvature="0" />
    <path
       d="M 80.757697,286.40111 H 54.978561 v 6.61123 h 25.779136 v -6.61123"
       style="fill:#fad406;fill-opacity:1;fill-rule:nonzero;stroke:none;stroke-width:0.08178386"
       id="path969"
       inkscape:connector-curvature="0" />
    <path
       d="M 80.757697,286.40111 H 54.978561 v 0.76767 h 25.779136 v -0.76767"
       style="fill:#f9ab0c;fill-opacity:1;fill-rule:nonzero;stroke:none;stroke-width:0.08178386"
       id="path971"
       inkscape:connector-curvature="0" />
    <path
       d="M 80.757697,288.113 H 54.978561 v 0.7659 h 25.779136 v -0.7659"
       style="fill:#f9ab0c;fill-opacity:1;fill-rule:nonzero;stroke:none;stroke-width:0.08178386"
       id="path973"
       inkscape:connector-curvature="0" />
    <path
       d="M 80.757697,289.70717 H 54.978561 v 0.76767 h 25.779136 v -0.76767"
       style="fill:#f9ab0c;fill-opacity:1;fill-rule:nonzero;stroke:none;stroke-width:0.08178386"
       id="path975"
       inkscape:connector-curvature="0" />
    <path
       d="M 80.757697,291.3839 H 54.978561 v 0.76767 h 25.779136 v -0.76767"
       style="fill:#f9ab0c;fill-opacity:1;fill-rule:nonzero;stroke:none;stroke-width:0.08178386"
       id="path977"
       inkscape:connector-curvature="0" />
    <path
       d="m 78.308683,281.86102 c 0,0.83703 -0.58636,1.51335 -1.31208,1.51335 H 49.829084 c -0.725795,0 -1.311471,-0.67632 -1.311471,-1.51335 0,-0.83443 0.585676,-1.51164 1.311471,-1.51164 h 27.167519 c 0.72572,0 1.31208,0.67721 1.31208,1.51164"
       style="fill:#1c2026;fill-opacity:1;fill-rule:nonzero;stroke:none;stroke-width:0.08178386"
       id="path979"
       inkscape:connector-curvature="0" />
    <path
       d="m 78.308683,272.22566 c 0,0.8353 -0.58636,1.51251 -1.31208,1.51251 H 49.829084 c -0.725795,0 -1.311471,-0.67721 -1.311471,-1.51251 0,-0.83529 0.585676,-1.51425 1.311471,-1.51425 h 27.167519 c 0.72572,0 1.31208,0.67896 1.31208,1.51425"
       style="fill:#1c2026;fill-opacity:1;fill-rule:nonzero;stroke:none;stroke-width:0.08178386"
       id="path981"
       inkscape:connector-curvature="0" />
    <path
       d="M 76.303631,273.73817 H 50.524266 v 6.61121 h 25.779365 v -6.61121"
       style="fill:#ef2f3f;fill-opacity:1;fill-rule:nonzero;stroke:none;stroke-width:0.08178386"
       id="path983"
       inkscape:connector-curvature="0" />
    <path
       d="M 76.303631,273.73817 H 50.524266 v 0.76765 h 25.779365 v -0.76765"
       style="fill:#ce1f25;fill-opacity:1;fill-rule:nonzero;stroke:none;stroke-width:0.08178386"
       id="path985"
       inkscape:connector-curvature="0" />
    <path
       d="M 76.303631,275.45004 H 50.524266 v 0.76767 h 25.779365 v -0.76767"
       style="fill:#ce1f25;fill-opacity:1;fill-rule:nonzero;stroke:none;stroke-width:0.08178386"
       id="path987"
       inkscape:connector-curvature="0" />
    <path
       d="M 76.303631,277.04334 H 50.524266 v 0.76854 h 25.779365 v -0.76854"
       style="fill:#ce1f25;fill-opacity:1;fill-rule:nonzero;stroke:none;stroke-width:0.08178386"
       id="path989"
       inkscape:connector-curvature="0" />
    <path
       d="M 76.303631,278.72095 H 50.524266 v 0.76943 h 25.779365 v -0.76943"
       style="fill:#ce1f25;fill-opacity:1;fill-rule:nonzero;stroke:none;stroke-width:0.08178386"
       id="path991"
       inkscape:connector-curvature="0" />
    <path
       d="m 82.08653,269.19806 c 0,0.83616 -0.588646,1.51335 -1.31208,1.51335 H 53.604799 c -0.723663,0 -1.312082,-0.67719 -1.312082,-1.51335 0,-0.83355 0.588419,-1.51249 1.312082,-1.51249 H 80.77445 c 0.723434,0 1.31208,0.67894 1.31208,1.51249"
       style="fill:#1c2026;fill-opacity:1;fill-rule:nonzero;stroke:none;stroke-width:0.08178386"
       id="path993"
       inkscape:connector-curvature="0" />
    <path
       d="m 82.08653,259.56273 c 0,0.83529 -0.588646,1.51248 -1.31208,1.51248 H 53.604799 c -0.723663,0 -1.312082,-0.67544 -1.312082,-1.51248 0,-0.83619 0.588419,-1.51338 1.312082,-1.51338 H 80.77445 c 0.723434,0 1.31208,0.67719 1.31208,1.51338"
       style="fill:#1c2026;fill-opacity:1;fill-rule:nonzero;stroke:none;stroke-width:0.08178386"
       id="path995"
       inkscape:connector-curvature="0" />
    <path
       d="M 80.079193,261.07521 H 54.299674 v 6.61036 h 25.779519 v -6.61036"
       style="fill:#3ca23c;fill-opacity:1;fill-rule:nonzero;stroke:none;stroke-width:0.08178386"
       id="path997"
       inkscape:connector-curvature="0" />
    <path
       d="M 80.079193,261.07521 H 54.299674 v 0.76767 h 25.779519 v -0.76767"
       style="fill:#2a692f;fill-opacity:1;fill-rule:nonzero;stroke:none;stroke-width:0.08178386"
       id="path999"
       inkscape:connector-curvature="0" />
    <path
       d="M 80.079193,262.78621 H 54.299674 v 0.76854 h 25.779519 v -0.76854"
       style="fill:#2a692f;fill-opacity:1;fill-rule:nonzero;stroke:none;stroke-width:0.08178386"
       id="path1001"
       inkscape:connector-curvature="0" />
    <path
       d="M 80.079193,264.38038 H 54.299674 v 0.76944 h 25.779519 v -0.76944"
       style="fill:#2a692f;fill-opacity:1;fill-rule:nonzero;stroke:none;stroke-width:0.08178386"
       id="path1003"
       inkscape:connector-curvature="0" />
    <path
       d="M 80.079193,266.05975 H 54.299674 v 0.76593 h 25.779519 v -0.76593"
       style="fill:#2a692f;fill-opacity:1;fill-rule:nonzero;stroke:none;stroke-width:0.08178386"
       id="path1005"
       inkscape:connector-curvature="0" />
  </g>
</svg>
